<svg width="274" height="47" viewBox="0 0 274 47" fill="none" xmlns="http://www.w3.org/2000/svg">
<path d="M162.225 14.0908V13.0436H159.149C157.547 13.0436 156.8 13.471 156.8 14.5603C156.8 15.586 157.632 16.2478 159 16.2478C160.751 16.2478 162.097 15.3294 162.225 14.0908ZM162.246 18.0847V16.6968C161.434 17.701 160.132 18.192 158.487 18.192C156.031 18.192 154.492 16.6753 154.492 14.6676C154.492 12.5955 156.052 11.2711 158.786 11.2496H162.225V10.9088C162.225 9.47707 161.306 8.62299 159.512 8.62299C158.423 8.62299 157.291 9.00754 156.159 9.7758L155.155 8.06763C156.735 7.12773 157.889 6.63591 160.046 6.63591C162.972 6.63591 164.617 8.13117 164.638 10.6307L164.66 18.0847H162.246Z" fill="#A08B63"/>
<path d="M175.79 12.4461C175.79 10.2462 174.359 8.70799 172.307 8.70799C170.257 8.70799 168.827 10.2676 168.805 12.4461C168.827 14.6032 170.236 16.1414 172.307 16.1414C174.359 16.1414 175.79 14.6032 175.79 12.4461ZM178.246 2.23594V18.0847H175.79V16.1414C174.978 17.4658 173.61 18.192 171.796 18.192C168.527 18.192 166.348 15.8212 166.348 12.3603C166.348 8.94317 168.548 6.61528 171.752 6.61528C173.589 6.61528 174.956 7.36209 175.79 8.68653V2.23594H178.246Z" fill="#A08B63"/>
<path d="M183.886 18.0848H181.45V6.72101H183.886V18.0848ZM184.099 3.47466C184.099 4.30729 183.48 4.92701 182.668 4.92701C181.856 4.92701 181.238 4.30729 181.238 3.47466C181.238 2.61975 181.856 2.00003 182.668 2.00003C183.48 2.00003 184.099 2.61975 184.099 3.47466Z" fill="#A08B63"/>
<path fill-rule="evenodd" clip-rule="evenodd" d="M29.4838 19.8487L34.6669 25.3404L35.7628 26.8679L36.8636 28.397L35.5136 27.0915L34.166 25.7893L29.4838 19.8487Z" fill="#A08B63"/>
<path fill-rule="evenodd" clip-rule="evenodd" d="M31.8193 18.2796L35.4897 24.8944L36.1747 26.6438L36.8637 28.3957L35.8768 26.794L34.8882 25.1906L31.8193 18.2796Z" fill="#A08B63"/>
<path fill-rule="evenodd" clip-rule="evenodd" d="M34.4923 17.3995L36.4075 24.6885L36.637 26.5411L36.8639 28.397L36.3027 26.603L35.7424 24.809L34.4923 17.3995Z" fill="#A08B63"/>
<path fill-rule="evenodd" clip-rule="evenodd" d="M37.326 17.2634L37.3582 24.7331L37.1106 26.5626L36.8639 28.397L36.7706 26.537L36.6782 24.6728L37.326 17.2634Z" fill="#A08B63"/>
<path fill-rule="evenodd" clip-rule="evenodd" d="M40.1317 17.8901L38.2709 25.0297L37.5703 26.7123L36.8639 28.3957L37.2452 26.5959L37.6248 24.7937L40.1317 17.8901Z" fill="#A08B63"/>
<path fill-rule="evenodd" clip-rule="evenodd" d="M42.7189 19.2356L39.0922 25.5542L37.979 26.976L36.8642 28.397L37.6902 26.7796L38.5195 25.1605L42.7189 19.2356Z" fill="#A08B63"/>
<path fill-rule="evenodd" clip-rule="evenodd" d="M44.9016 21.1996L39.7565 26.2762L38.3124 27.3366L36.8642 28.397L38.0813 27.0692L39.2968 25.744L44.9016 21.1996Z" fill="#A08B63"/>
<path fill-rule="evenodd" clip-rule="evenodd" d="M46.5402 23.6611L40.2299 27.141L38.544 27.769L36.8639 28.397L38.3914 27.4546L39.9172 26.5106L46.5402 23.6611Z" fill="#A08B63"/>
<path fill-rule="evenodd" clip-rule="evenodd" d="M47.5142 26.4412L40.4719 28.0916L38.6697 28.2468L36.8642 28.397L38.5929 27.8994L40.3226 27.4076L47.5142 26.4412Z" fill="#A08B63"/>
<path fill-rule="evenodd" clip-rule="evenodd" d="M47.7652 29.354L40.4663 29.0602L38.6649 28.731L36.8643 28.3959L38.6798 28.3778L40.4952 28.3654L47.7652 29.354Z" fill="#A08B63"/>
<path fill-rule="evenodd" clip-rule="evenodd" d="M47.2752 32.2042L40.214 29.9869L38.5413 29.1947L36.8637 28.3959L38.642 28.8622L40.4203 29.3334L47.2752 32.2042Z" fill="#A08B63"/>
<path fill-rule="evenodd" clip-rule="evenodd" d="M46.0741 34.7915L39.7374 30.8074L38.3015 29.6035L36.864 28.3962L38.4814 29.3163L40.098 30.2331L46.0741 34.7915Z" fill="#A08B63"/>
<path fill-rule="evenodd" clip-rule="evenodd" d="M44.2435 36.9438L39.0621 31.4595L37.9638 29.9296L36.8638 28.3964L38.2138 29.706L39.5638 31.0114L44.2435 36.9438Z" fill="#A08B63"/>
<path fill-rule="evenodd" clip-rule="evenodd" d="M41.9131 38.5167L38.2351 31.8994L37.5494 30.15L36.8637 28.3956L37.8547 30.0023L38.8408 31.609L41.9131 38.5167Z" fill="#A08B63"/>
<path fill-rule="evenodd" clip-rule="evenodd" d="M39.2376 39.4017L37.319 32.1102L37.0879 30.2543L36.8643 28.3968L37.4263 30.1933L37.9825 31.9872L39.2376 39.4017Z" fill="#A08B63"/>
<path fill-rule="evenodd" clip-rule="evenodd" d="M36.3977 39.5315L36.3664 32.0618L36.6139 30.2282L36.864 28.3962L36.9564 30.2604L37.0472 32.122L36.3977 39.5315Z" fill="#A08B63"/>
<path fill-rule="evenodd" clip-rule="evenodd" d="M33.593 38.9047L35.4538 31.7651L36.1577 30.0792L36.8641 28.3966L36.4836 30.2038L36.1024 32.0044L33.593 38.9047Z" fill="#A08B63"/>
<path fill-rule="evenodd" clip-rule="evenodd" d="M31.0102 37.5649L34.6328 31.2414L35.751 29.8187L36.8641 28.3969L36.034 30.0159L35.2071 31.6375L31.0102 37.5649Z" fill="#A08B63"/>
<path fill-rule="evenodd" clip-rule="evenodd" d="M28.825 35.5931L33.966 30.5165L35.4142 29.4561L36.8641 28.3966L35.6453 29.7243L34.4257 31.0488L28.825 35.5931Z" fill="#A08B63"/>
<path fill-rule="evenodd" clip-rule="evenodd" d="M27.1896 33.1392L33.4974 29.656L35.1808 29.0264L36.8642 28.3959L35.3376 29.3408L33.8077 30.2848L27.1896 33.1392Z" fill="#A08B63"/>
<path fill-rule="evenodd" clip-rule="evenodd" d="M26.2104 30.354L33.2551 28.7061L35.0598 28.5534L36.8637 28.3966L35.1341 28.8934L33.402 29.3885L26.2104 30.354Z" fill="#A08B63"/>
<path fill-rule="evenodd" clip-rule="evenodd" d="M25.9591 27.4405L33.2588 27.7343L35.0627 28.0668L36.8641 28.3969L35.0454 28.4109L33.2299 28.4291L25.9591 27.4405Z" fill="#A08B63"/>
<path fill-rule="evenodd" clip-rule="evenodd" d="M26.4533 24.5948L33.5096 26.8064L35.1881 27.6002L36.8641 28.3957L35.0825 27.9311L33.3066 27.4632L26.4533 24.5948Z" fill="#A08B63"/>
<path fill-rule="evenodd" clip-rule="evenodd" d="M27.6574 22.0066L33.9917 25.9932L35.43 27.1955L36.8642 28.397L35.2427 27.4793L33.6269 26.5626L27.6574 22.0066Z" fill="#A08B63"/>
<path fill-rule="evenodd" clip-rule="evenodd" d="M33.0401 17.8265C33.3099 17.6961 33.6417 17.8157 33.7778 18.0955C33.9173 18.3728 33.8141 18.7078 33.5443 18.8382C33.2786 18.9686 32.9477 18.8489 32.814 18.5716C32.6696 18.2894 32.7727 17.9544 33.0401 17.8265Z" fill="#A08B63"/>
<path fill-rule="evenodd" clip-rule="evenodd" d="M35.8047 17.2883C36.0984 17.238 36.3872 17.4352 36.4557 17.7422C36.5176 18.045 36.3353 18.3347 36.0407 18.39C35.7485 18.4477 35.4556 18.2406 35.3921 17.9394C35.3252 17.6349 35.5109 17.3486 35.8047 17.2883Z" fill="#A08B63"/>
<path fill-rule="evenodd" clip-rule="evenodd" d="M38.6392 17.5112C38.9371 17.5343 39.1731 17.8083 39.1582 18.1128C39.1475 18.4223 38.8909 18.6525 38.588 18.6228C38.2901 18.5997 38.0533 18.3257 38.069 18.022C38.0822 17.7151 38.338 17.4848 38.6392 17.5112Z" fill="#A08B63"/>
<path fill-rule="evenodd" clip-rule="evenodd" d="M41.3513 18.474C41.6385 18.5747 41.8002 18.8998 41.7095 19.1903C41.6154 19.4766 41.3109 19.6293 41.0229 19.5236C40.7382 19.4197 40.5781 19.0978 40.6639 18.8074C40.7613 18.5185 41.0658 18.3708 41.3513 18.474Z" fill="#A08B63"/>
<path fill-rule="evenodd" clip-rule="evenodd" d="M43.76 20.1144C44.0125 20.2902 44.0868 20.6351 43.9234 20.8885C43.7642 21.1426 43.4283 21.2062 43.1733 21.0279C42.9158 20.8513 42.8441 20.5039 43.0025 20.2498C43.1667 19.9964 43.5026 19.9378 43.76 20.1144Z" fill="#A08B63"/>
<path fill-rule="evenodd" clip-rule="evenodd" d="M45.6958 22.3139C45.9037 22.5549 45.8839 22.9006 45.6611 23.1011C45.4399 23.2992 45.0991 23.2744 44.892 23.0343C44.689 22.7991 44.703 22.4468 44.925 22.2487C45.1486 22.049 45.4928 22.0795 45.6958 22.3139Z" fill="#A08B63"/>
<path fill-rule="evenodd" clip-rule="evenodd" d="M47.0334 24.9338C47.1721 25.216 47.0714 25.5477 46.7991 25.6756C46.5317 25.8093 46.2033 25.6872 46.0613 25.4066C45.9268 25.1294 46.03 24.8001 46.2949 24.6648C46.568 24.5369 46.8915 24.6532 47.0334 24.9338Z" fill="#A08B63"/>
<path fill-rule="evenodd" clip-rule="evenodd" d="M47.6729 27.7904C47.7398 28.0891 47.5541 28.3804 47.2628 28.4382C46.9657 28.491 46.6761 28.2863 46.6109 27.9851C46.5424 27.679 46.7322 27.3926 47.0268 27.3373C47.3156 27.2821 47.6061 27.4809 47.6729 27.7904Z" fill="#A08B63"/>
<path fill-rule="evenodd" clip-rule="evenodd" d="M47.579 30.6843C47.5683 30.9937 47.3166 31.219 47.0121 31.1926C46.7109 31.1654 46.4774 30.8955 46.4906 30.5886C46.5055 30.2791 46.7571 30.0538 47.0583 30.0802C47.3587 30.1066 47.5923 30.3765 47.579 30.6843Z" fill="#A08B63"/>
<path fill-rule="evenodd" clip-rule="evenodd" d="M46.7574 33.4249C46.6658 33.7146 46.3605 33.8672 46.0725 33.7558C45.7853 33.6551 45.626 33.3333 45.7176 33.0437C45.8059 32.7557 46.1112 32.608 46.3984 32.7095C46.6848 32.8126 46.8482 33.1344 46.7574 33.4249Z" fill="#A08B63"/>
<path fill-rule="evenodd" clip-rule="evenodd" d="M45.2573 35.8228C45.0956 36.0736 44.7572 36.1347 44.5072 35.9606C44.2506 35.7848 44.1755 35.4349 44.3397 35.1816C44.4956 34.9258 44.8348 34.8639 45.0898 35.043C45.3464 35.2195 45.419 35.567 45.2573 35.8228Z" fill="#A08B63"/>
<path fill-rule="evenodd" clip-rule="evenodd" d="M43.1874 37.7151C42.9688 37.9098 42.6189 37.8793 42.4167 37.6449C42.2112 37.4073 42.2286 37.0525 42.4464 36.8569C42.67 36.6572 43.0158 36.6869 43.2205 36.9245C43.4235 37.1597 43.4111 37.5154 43.1874 37.7151Z" fill="#A08B63"/>
<path fill-rule="evenodd" clip-rule="evenodd" d="M40.6845 38.9688C40.4196 39.1 40.0887 38.9795 39.9492 38.7023C39.8073 38.4217 39.9129 38.0858 40.1803 37.9571C40.4452 37.8267 40.7769 37.9455 40.9155 38.2286C41.055 38.5059 40.9518 38.8409 40.6845 38.9688Z" fill="#A08B63"/>
<path fill-rule="evenodd" clip-rule="evenodd" d="M37.9224 39.5039C37.6287 39.5584 37.3357 39.357 37.273 39.0534C37.207 38.7489 37.3902 38.46 37.6864 38.4072C37.9777 38.3495 38.2715 38.5516 38.3326 38.8553C38.401 39.1615 38.2179 39.4519 37.9224 39.5039Z" fill="#A08B63"/>
<path fill-rule="evenodd" clip-rule="evenodd" d="M35.0878 39.2808C34.79 39.2577 34.5556 38.987 34.5696 38.68C34.5795 38.3747 34.8362 38.1453 35.1374 38.1717C35.4377 38.1981 35.6713 38.4688 35.6556 38.7724C35.6449 39.0827 35.389 39.3121 35.0878 39.2808Z" fill="#A08B63"/>
<path fill-rule="evenodd" clip-rule="evenodd" d="M35.9316 27.3174C36.4919 26.8165 37.3633 26.8924 37.8782 27.4882C38.3948 28.0865 38.356 28.9744 37.7949 29.4761C37.2354 29.977 36.3648 29.9036 35.8482 29.3053C35.3341 28.7095 35.3721 27.8183 35.9316 27.3174Z" fill="#A08B63"/>
<path fill-rule="evenodd" clip-rule="evenodd" d="M45.182 20.9487C41.7764 17.0043 36.4629 15.8383 32.1224 17.7008V18.6605C36.203 16.7113 41.3217 17.7329 44.5705 21.4967C48.4787 26.0229 48.1956 32.7854 43.9417 36.5946C40.6335 39.5562 35.9026 39.8524 32.1224 37.7193V38.6782C36.1361 40.7519 41.0403 40.3451 44.5029 37.2456C49.0992 33.1304 49.4012 25.8364 45.182 20.9487Z" fill="#A08B63"/>
<path d="M198.551 23.2137L194.62 17.9332L192.586 20.1712V23.2137H190.569V11.2499H192.586V17.4373L198.294 11.2499H200.67L196.039 16.3604L200.978 23.2137H198.551Z" fill="#A08B63"/>
<path d="M207.728 20.0178V19.1802H205.267C203.984 19.1802 203.386 19.5219 203.386 20.3933C203.386 21.2143 204.053 21.7433 205.147 21.7433C206.548 21.7433 207.624 21.0089 207.728 20.0178ZM207.745 23.2138V22.1023C207.095 22.906 206.052 23.2996 204.736 23.2996C202.771 23.2996 201.54 22.0858 201.54 20.4791C201.54 18.8213 202.788 17.7617 204.976 17.7444H207.728V17.4712C207.728 16.3259 206.992 15.6426 205.557 15.6426C204.685 15.6426 203.78 15.9496 202.874 16.5652L202.071 15.1978C203.335 14.446 204.258 14.0524 205.984 14.0524C208.326 14.0524 209.641 15.249 209.659 17.2493L209.676 23.2138H207.745Z" fill="#A08B63"/>
<path d="M175.292 26.3056L180.226 36.2378L185.139 26.3056H188.108V41.2574H185.779L185.759 30.0867L181.038 39.6978H179.393L174.673 30.0867V41.2574H172.301V26.3056H175.292Z" fill="#A08B63"/>
<path d="M198.17 37.2625V36.2153H195.094C193.492 36.2153 192.744 36.6428 192.744 37.7321C192.744 38.7578 193.578 39.4196 194.944 39.4196C196.696 39.4196 198.042 38.5011 198.17 37.2625ZM198.191 41.2565V39.8685C197.379 40.8728 196.076 41.3638 194.432 41.3638C191.976 41.3638 190.438 39.8471 190.438 37.8393C190.438 35.7673 191.997 34.4428 194.731 34.4214H198.17V34.0805C198.17 32.6488 197.251 31.7947 195.457 31.7947C194.368 31.7947 193.236 32.1785 192.104 32.9476L191.1 31.2386C192.681 30.2995 193.834 29.8077 195.991 29.8077C198.918 29.8077 200.562 31.3029 200.584 33.8025L200.605 41.2565H198.191Z" fill="#A08B63"/>
<path d="M214.362 34.1871V41.2566H211.905V34.8704C211.905 33.1614 210.88 32.115 209.171 32.115C207.142 32.1365 205.925 33.6532 205.925 35.6609V41.2566H203.468V25.4078H205.925V32.115C206.736 30.5133 208.189 29.8078 210.132 29.8078C212.781 29.8078 214.362 31.4738 214.362 34.1871Z" fill="#A08B63"/>
<path d="M218.507 35.5967C218.507 37.7966 219.938 39.2927 221.988 39.2927C224.017 39.2927 225.448 37.7966 225.448 35.5967C225.448 33.4181 224.017 31.9014 221.988 31.9014C219.938 31.9014 218.507 33.4181 218.507 35.5967ZM227.905 35.5546C227.905 38.9932 225.491 41.3425 221.988 41.3425C218.464 41.3425 216.05 38.9932 216.05 35.5546C216.05 32.1366 218.464 29.8079 221.988 29.8079C225.491 29.8079 227.905 32.1366 227.905 35.5546Z" fill="#A08B63"/>
<path d="M236.365 40.5303C235.468 41.0642 234.528 41.3638 233.566 41.3638C231.857 41.3638 230.383 40.381 230.383 38.0531V32.1578H228.782V30.3201H230.383V27.2025H232.819V30.3201H236.172V32.1578H232.819V37.605C232.819 38.7792 233.268 39.1423 234.036 39.1423C234.549 39.1423 235.083 38.9715 235.745 38.6505L236.365 40.5303Z" fill="#A08B63"/>
<path d="M241.299 31.7521C240.338 31.7521 239.633 32.0723 239.633 32.8843C239.633 34.9778 245.678 33.8456 245.656 37.9675C245.656 40.2962 243.585 41.3434 241.299 41.3434C239.633 41.3434 237.861 40.7872 236.728 39.7623L237.604 38.0104C238.586 38.8868 240.167 39.4198 241.406 39.4198C242.452 39.4198 243.264 39.0576 243.264 38.2027C243.264 35.8748 237.283 37.1769 237.305 33.0757C237.305 30.7701 239.312 29.7873 241.491 29.7873C242.922 29.7873 244.439 30.2139 245.464 30.9409L244.567 32.7555C243.564 32.1366 242.303 31.7521 241.299 31.7521Z" fill="#A08B63"/>
<path d="M254.393 37.2625V36.2153H251.317C249.715 36.2153 248.967 36.6428 248.967 37.7321C248.967 38.7578 249.801 39.4196 251.167 39.4196C252.919 39.4196 254.265 38.5011 254.393 37.2625ZM254.415 41.2565V39.8685C253.603 40.8728 252.3 41.3638 250.655 41.3638C248.199 41.3638 246.661 39.8471 246.661 37.8393C246.661 35.7673 248.221 34.4428 250.955 34.4214H254.393V34.0805C254.393 32.6488 253.475 31.7947 251.68 31.7947C250.591 31.7947 249.459 32.1785 248.327 32.9476L247.324 31.2386C248.904 30.2995 250.058 29.8077 252.215 29.8077C255.141 29.8077 256.785 31.3029 256.807 33.8025L256.828 41.2565H254.415Z" fill="#A08B63"/>
<path d="M260.012 29.8936L263.173 38.8437L266.291 29.8936H268.748L264.391 41.2574H261.849L257.449 29.8936H260.012Z" fill="#A08B63"/>
<path d="M129.511 30.7175L127.255 25.4024L124.999 30.7175H129.511ZM130.28 32.5123H124.247L123.102 35.2123H121L126.28 23.2486H128.349L133.579 35.2123H131.426L130.28 32.5123Z" fill="#A08B63"/>
<path d="M149.814 29.5556V35.2123H147.848V30.1027C147.848 28.718 147.028 27.8804 145.695 27.8804C144.14 27.9324 143.2 29.1281 143.2 30.7175V35.2123H141.234V30.1027C141.234 28.718 140.431 27.8804 139.098 27.8804C137.525 27.9324 136.569 29.1281 136.569 30.7175V35.2123H134.62V26.1203H136.569V27.8804C137.201 26.5989 138.363 26.0518 139.867 26.0518C141.49 26.0518 142.601 26.8555 143.028 28.2394C143.609 26.7186 144.823 26.0518 146.481 26.0518C148.566 26.0518 149.814 27.3853 149.814 29.5556Z" fill="#A08B63"/>
<path d="M157.127 26.0518V27.9316C155.299 27.8293 154.136 28.9053 153.982 30.4608V35.2123H152.017V26.1203H153.982V27.9316C154.598 26.7012 155.691 26.0518 157.127 26.0518Z" fill="#A08B63"/>
<path d="M160.271 35.2123H158.323V26.1195H160.271V35.2123ZM160.442 23.5226C160.442 24.1885 159.947 24.6844 159.297 24.6844C158.648 24.6844 158.153 24.1885 158.153 23.5226C158.153 22.8376 158.648 22.3425 159.297 22.3425C159.947 22.3425 160.442 22.8376 160.442 23.5226Z" fill="#A08B63"/>
<path d="M167.893 34.6315C167.175 35.059 166.424 35.2983 165.655 35.2983C164.287 35.2983 163.108 34.5119 163.108 32.6486V27.9317H161.826V26.462H163.108V23.9666H165.056V26.462H167.739V27.9317H165.056V32.2904C165.056 33.2295 165.415 33.52 166.03 33.52C166.44 33.52 166.868 33.3838 167.397 33.1272L167.893 34.6315Z" fill="#A08B63"/>
<path fill-rule="evenodd" clip-rule="evenodd" d="M116.37 14.6753C115.734 14.3659 115.257 14.6093 114.822 14.8057C110.687 16.6665 106.548 16.5906 102.222 15.3355C98.7569 14.3304 95.2201 13.4491 91.5934 13.1413C85.1007 12.5917 79.2946 14.8387 73.6675 17.6832C71.2093 18.9251 68.7947 20.257 66.0889 20.8652C63.6851 21.4057 62.8029 20.4913 63.251 18.0776C63.629 16.0419 63.1718 15.2233 61.2128 14.5408C60.6855 14.3568 60.1293 14.2239 59.5756 14.1563C52.6076 13.3071 45.7972 14.2966 39.0586 15.9593L38.5132 16.2119C38.5132 16.2119 46.124 15.7126 49.4397 22.4017C53.6242 21.7729 57.8278 21.9437 62.0396 22.5296C63.7544 22.7681 64.4344 23.6783 63.7981 25.4252C63.5456 26.1217 63.4111 26.8817 63.3534 27.6227C63.1776 29.8912 64.1885 30.756 66.4099 30.2518C67.1361 30.0876 67.8722 29.8747 68.5381 29.5504C71.5699 28.0749 74.6198 26.6383 77.4255 24.7312C80.4061 22.7037 83.6376 21.3727 87.2998 20.9856C92.1685 20.4707 97.0389 20.8561 101.902 20.6432C106.109 20.4592 110.28 20.0045 113.849 17.4373C114.861 16.7095 116.001 16.0336 116.37 14.6753Z" fill="#F7941D"/>
<path fill-rule="evenodd" clip-rule="evenodd" d="M116.37 30.0707C115.734 29.7612 115.257 30.0046 114.822 30.201C110.687 32.0619 106.548 31.9859 102.222 30.7308C98.7569 29.7265 95.2201 28.8444 91.5934 28.5374C85.1007 27.987 79.2946 30.234 73.6675 33.0785C71.2093 34.3204 68.7947 35.6523 66.0889 36.2605C63.6851 36.801 62.8029 35.8875 63.251 33.473C63.629 31.4372 63.1718 30.6186 61.2128 29.9361C60.6855 29.7521 60.1293 29.6193 59.5756 29.5516C56.6692 29.1976 53.7918 29.1671 50.9341 29.3676C50.8309 30.4453 50.052 36.0071 44.9093 38.7848C45.5373 38.6164 46.1653 38.4522 46.7965 38.3029C51.8534 37.1113 56.9407 37.2152 62.0396 37.9249C63.7544 38.1642 64.4344 39.0736 63.7981 40.8214C63.5456 41.517 63.4111 42.277 63.3534 43.0181C63.1776 45.2865 64.1885 46.1513 66.4099 45.6471C67.1361 45.4829 67.8722 45.27 68.5381 44.9457C71.5699 43.4703 74.6198 42.0344 77.4255 40.1265C80.4061 38.0999 83.6376 36.768 87.2998 36.381C92.1685 35.866 97.0389 36.2514 101.902 36.0385C106.109 35.8545 110.28 35.4006 113.849 32.8326C114.861 32.1048 116.001 31.4289 116.37 30.0707Z" fill="#00A24E"/>
<path fill-rule="evenodd" clip-rule="evenodd" d="M4.71247 1.99988V5.29738H24.2912L7.78634 35.5723L10.4831 37.5206L30.1914 1.99988H4.71247Z" fill="#A08B63"/>
<path fill-rule="evenodd" clip-rule="evenodd" d="M48.8438 2.00096H33.5264L22.3895 22.0847L24.9658 23.358L35.1958 5.29846H48.8438V2.00096Z" fill="#A08B63"/>
<path d="M138.321 12.4669L135.502 5.82401L132.683 12.4669H138.321ZM139.283 14.7098H131.743L130.311 18.0848H127.684L134.284 3.13303H136.869L143.405 18.0848H140.714L139.283 14.7098Z" fill="#A08B63"/>
<path d="M153.381 6.74224V8.38687L146.888 16.0769L153.573 16.0975V18.1061L143.855 18.0846V16.4185L150.348 8.7285H144.046V6.72079L153.381 6.74224Z" fill="#A08B63"/>
</svg>
