<svg width="184" height="52" viewBox="0 0 184 52" fill="none" xmlns="http://www.w3.org/2000/svg">
<path fill-rule="evenodd" clip-rule="evenodd" d="M46.1773 43.2238V31.2597H49.9698C51.1129 31.2597 52.0228 31.5649 52.7039 32.1842C53.3817 32.7997 53.7217 33.628 53.7217 34.665C53.7217 35.3641 53.5452 35.9783 53.199 36.5173C52.8495 37.0513 52.374 37.4435 51.7698 37.6868C51.164 37.9285 50.2947 38.0493 49.1661 38.0493H47.8971V43.2238H46.1773ZM49.6725 32.785H47.8971V36.5223H49.7737C50.4694 36.5223 51.0084 36.3588 51.3843 36.0306C51.7631 35.704 51.9492 35.2336 51.9492 34.6244C51.9492 33.3993 51.1899 32.785 49.6725 32.785ZM58.3291 35.3281C59.5313 35.3281 60.526 35.7153 61.3213 36.491C62.112 37.2637 62.5105 38.2354 62.5105 39.4083C62.5105 40.5435 62.107 41.4877 61.3037 42.2386C60.5001 42.99 59.4857 43.3643 58.2622 43.3643C57.0814 43.3643 56.0934 42.9854 55.2976 42.2207C54.5057 41.458 54.1072 40.5042 54.1072 39.364C54.1072 38.2095 54.5074 37.2507 55.3123 36.4813C56.1126 35.7136 57.119 35.3281 58.3291 35.3281ZM58.2476 36.7326C57.4995 36.7326 56.8853 36.9793 56.4053 37.4694C55.9265 37.9611 55.6865 38.5867 55.6865 39.346C55.6865 40.1007 55.9315 40.715 56.4233 41.1921C56.9146 41.6687 57.5451 41.9087 58.3178 41.9087C59.0839 41.9087 59.7094 41.6654 60.1978 41.1837C60.6878 40.7003 60.9328 40.0827 60.9328 39.3297C60.9328 38.5816 60.6778 37.9611 60.1685 37.4694C59.6605 36.9793 59.0186 36.7326 58.2476 36.7326ZM73.908 35.3461H75.5805L72.1129 43.3643H71.5953L69.2742 37.8729L66.9728 43.3643H66.4518L62.9662 35.3461H64.6404L66.6952 40.1271L68.701 35.3461H69.8638L71.8533 40.1271L73.908 35.3461ZM83.058 39.3983H77.5127C77.5537 40.1597 77.805 40.7639 78.2708 41.2146C78.7362 41.6654 79.3387 41.8908 80.0738 41.8908C81.1012 41.8908 82.0487 41.5759 82.9159 40.9437V42.4611C82.4371 42.7793 81.9621 43.0047 81.4884 43.1422C81.0196 43.2794 80.466 43.348 79.8321 43.348C78.9632 43.348 78.2625 43.1665 77.7235 42.8056C77.1895 42.4465 76.7597 41.961 76.4381 41.3501C76.1128 40.7426 75.9514 40.0338 75.9514 39.2335C75.9514 38.0314 76.2909 37.0546 76.9721 36.2999C77.6499 35.5485 78.5338 35.1713 79.6214 35.1713C80.6651 35.1713 81.5013 35.5355 82.1252 36.2673C82.7461 36.9957 83.058 37.9758 83.058 39.2042V39.3983ZM77.5487 38.4692H81.513C81.4721 37.847 81.2872 37.3682 80.9573 37.0287C80.6245 36.6921 80.18 36.5223 79.6214 36.5223C79.0594 36.5223 78.6041 36.6921 78.2478 37.0287C77.8899 37.3682 77.6566 37.847 77.5487 38.4692ZM86.4081 35.3461V37.1332L86.493 36.9956C87.2473 35.7789 88.0004 35.1713 88.7585 35.1713C89.3464 35.1713 89.9606 35.4703 90.6008 36.0632L89.7775 37.4334C89.2352 36.9191 88.7321 36.6628 88.2684 36.6628C87.7637 36.6628 87.3293 36.9028 86.9601 37.3845C86.5925 37.865 86.4081 38.4349 86.4081 39.0913V43.2238H84.8464V35.3461H86.4081ZM93.562 31.2597H103.563V32.785H99.3866V43.2238H97.6681V32.785H93.562V31.2597ZM106.103 35.3281C107.305 35.3281 108.3 35.7153 109.093 36.491C109.887 37.2637 110.284 38.2354 110.284 39.4083C110.284 40.5435 109.881 41.4877 109.076 42.2386C108.274 42.99 107.258 43.3643 106.036 43.3643C104.855 43.3643 103.865 42.9854 103.071 42.2207C102.279 41.458 101.88 40.5042 101.88 39.364C101.88 38.2095 102.281 37.2507 103.086 36.4813C103.888 35.7136 104.893 35.3281 106.103 35.3281ZM106.021 36.7326C105.273 36.7326 104.659 36.9793 104.179 37.4694C103.7 37.9611 103.46 38.5867 103.46 39.346C103.46 40.1007 103.707 40.715 104.197 41.1921C104.688 41.6687 105.319 41.9087 106.091 41.9087C106.857 41.9087 107.483 41.6654 107.971 41.1837C108.46 40.7003 108.706 40.0827 108.706 39.3297C108.706 38.5816 108.45 37.9611 107.942 37.4694C107.434 36.9793 106.793 36.7326 106.021 36.7326ZM117.103 31.2597H123.891V32.785H118.823V36.4341H123.717V37.9611H118.823V41.6967H124.05V43.2238H117.103V31.2597ZM132.12 37.502V43.2238H130.559V38.8233C130.559 37.9465 130.441 37.3356 130.209 36.991C129.974 36.6432 129.566 36.4701 128.979 36.4701C128.656 36.4701 128.357 36.5466 128.086 36.6984C127.813 36.8489 127.505 37.1165 127.155 37.502V43.2238H125.595V35.3461H127.155V36.3785C127.949 35.5748 128.726 35.1713 129.486 35.1713C130.482 35.1713 131.258 35.6518 131.803 36.6105C132.638 35.6518 133.51 35.1713 134.418 35.1713C135.184 35.1713 135.813 35.4523 136.307 36.0109C136.801 36.5729 137.05 37.4255 137.05 38.572V43.2238H135.488V38.5394C135.488 37.8825 135.354 37.3795 135.085 37.0287C134.815 36.6804 134.43 36.5043 133.927 36.5043C133.285 36.5043 132.682 36.8372 132.12 37.502ZM139.085 47.2579V35.3461H141.814C143.211 35.3461 144.299 35.6957 145.076 36.3914C145.854 37.0889 146.242 38.064 146.242 39.3117C146.242 40.4959 145.878 41.4664 145.146 42.224C144.413 42.9854 143.48 43.3643 142.348 43.3643C141.845 43.3643 141.29 43.253 140.68 43.031V47.2579H139.085ZM141.78 36.8029H140.68V41.6507C141.157 41.8924 141.659 42.0133 142.181 42.0133C142.91 42.0133 143.506 41.7586 143.969 41.2523C144.432 40.7442 144.664 40.0928 144.664 39.2937C144.664 38.7794 144.557 38.327 144.338 37.9319C144.117 37.5396 143.818 37.2541 143.441 37.0726C143.062 36.8928 142.51 36.8029 141.78 36.8029ZM151.728 35.3281C152.93 35.3281 153.924 35.7153 154.719 36.491C155.511 37.2637 155.908 38.2354 155.908 39.4083C155.908 40.5435 155.505 41.4877 154.703 42.2386C153.898 42.99 152.882 43.3643 151.66 43.3643C150.479 43.3643 149.493 42.9854 148.697 42.2207C147.903 41.458 147.506 40.5042 147.506 39.364C147.506 38.2095 147.907 37.2507 148.71 36.4813C149.512 35.7136 150.518 35.3281 151.728 35.3281ZM151.647 36.7326C150.897 36.7326 150.283 36.9793 149.805 37.4694C149.324 37.9611 149.084 38.5867 149.084 39.346C149.084 40.1007 149.331 40.715 149.821 41.1921C150.313 41.6687 150.944 41.9087 151.715 41.9087C152.481 41.9087 153.109 41.6654 153.595 41.1837C154.084 40.7003 154.33 40.0827 154.33 39.3297C154.33 38.5816 154.076 37.9611 153.566 37.4694C153.058 36.9793 152.418 36.7326 151.647 36.7326ZM167.306 35.3461H168.978L165.512 43.3643H164.993L162.672 37.8729L160.37 43.3643H159.851L156.365 35.3461H158.036L160.093 40.1271L162.099 35.3461H163.263L165.251 40.1271L167.306 35.3461ZM176.456 39.3983H170.912C170.953 40.1597 171.204 40.7639 171.668 41.2146C172.134 41.6654 172.735 41.8908 173.473 41.8908C174.499 41.8908 175.446 41.5759 176.315 40.9437V42.4611C175.835 42.7793 175.358 43.0047 174.888 43.1422C174.417 43.2794 173.865 43.348 173.23 43.348C172.362 43.348 171.66 43.1665 171.123 42.8056C170.587 42.4465 170.158 41.961 169.836 41.3501C169.511 40.7426 169.351 40.0338 169.351 39.2335C169.351 38.0314 169.689 37.0546 170.371 36.2999C171.049 35.5485 171.933 35.1713 173.021 35.1713C174.063 35.1713 174.899 35.5355 175.523 36.2673C176.145 36.9957 176.456 37.9758 176.456 39.2042V39.3983ZM170.946 38.4692H174.912C174.87 37.847 174.687 37.3682 174.357 37.0287C174.024 36.6921 173.578 36.5223 173.021 36.5223C172.459 36.5223 172.002 36.6921 171.645 37.0287C171.29 37.3682 171.054 37.847 170.946 38.4692ZM179.806 35.3461V37.1332L179.891 36.9956C180.645 35.7789 181.4 35.1713 182.158 35.1713C182.744 35.1713 183.36 35.4703 184 36.0632L183.173 37.4334C182.633 36.9191 182.13 36.6628 181.666 36.6628C181.163 36.6628 180.727 36.9028 180.359 37.3845C179.99 37.865 179.806 38.4349 179.806 39.0913V43.2238H178.246V35.3461H179.806Z" fill="#3E4140"/>
<path fill-rule="evenodd" clip-rule="evenodd" d="M26.8392 38.3296L25.6902 40.3259C23.5551 43.8527 20.0452 47.7174 16.2557 49.5132C15.8626 49.6994 15.5698 49.8378 15.1773 49.9968C14.9249 50.0988 14.1957 50.3592 14.0465 50.4668C21.8072 48.8808 27.5537 45.4126 32.3515 39.6177C36.3331 34.8085 40.4228 27.0004 39.8486 18.1731C39.2971 9.70814 34.5004 3.32607 27.3804 1.53605C19.7654 -0.379258 14.0157 3.04227 9.87872 8.53413C9.58179 8.92775 8.66009 10.2631 8.52344 10.6904C14.1273 7.88573 20.828 6.64449 26.474 10.7462C31.3916 14.3181 32.8711 21.5046 31.5921 27.7763C30.8504 31.4172 29.3892 34.1893 27.5543 37.2274C27.3981 37.4848 26.9054 38.1291 26.8392 38.3296Z" fill="#E94E1A"/>
<path fill-rule="evenodd" clip-rule="evenodd" d="M7.18682 50.1291C6.66282 50.5027 4.61705 49.8608 4.08838 49.769C5.10249 50.4879 7.20913 51.0661 8.72849 51.151C11.0533 51.2821 12.0708 50.8793 14.0465 50.4669C14.1957 50.3592 14.9249 50.0989 15.1773 49.9968C15.5698 49.8379 15.8626 49.6995 16.2557 49.5132C20.0452 47.7175 23.5551 43.8528 25.6902 40.3259L26.8392 38.3297C26.9697 37.9316 27.2665 37.3909 27.4506 36.9654C28.9727 33.4544 30.0927 29.4746 29.7503 25.5676C29.5441 23.2222 28.9654 21.1395 27.9536 19.4316C24.6449 13.8464 17.6674 11.7717 11.66 14.4235C8.38212 15.8699 6.3096 18.2278 4.59539 21.1754C4.3584 21.5839 4.17726 22.059 3.96021 22.4031C4.2234 22.3576 4.99646 21.8722 5.35537 21.7029C6.94983 20.9509 8.45095 20.3989 10.2774 20.0992C14.979 19.3285 19.9295 20.849 22.3348 24.8927C23.4651 26.7948 23.7846 29.5219 23.5049 32.1207C23.007 36.7472 20.6873 41.5752 18.4205 44.3091C17.8816 44.9591 16.9684 46.0062 16.3235 46.556C15.5659 47.2025 14.8508 47.7939 13.8893 48.3869C12.2708 49.3862 9.01039 50.6201 7.18682 50.1291Z" fill="#259A3A"/>
<path fill-rule="evenodd" clip-rule="evenodd" d="M4.0884 49.7691C4.61707 49.8608 6.66284 50.5028 7.18684 50.1292C6.29824 49.8636 5.8231 49.388 5.47673 48.5818C4.52535 46.3703 5.33148 42.3233 5.86919 40.1345C6.29985 38.3817 6.77105 36.7541 7.31853 35.0655L8.97337 30.2345L2.44544 30.25C2.04552 30.8732 1.17105 34.2931 0.932359 35.2781C-0.16543 39.8087 -1.35094 47.6288 4.0884 49.7691Z" fill="#1D57A6"/>
<path fill-rule="evenodd" clip-rule="evenodd" d="M2.24716 25.9289L2.72798 26.4564C3.0658 26.1596 3.39565 25.8087 3.93172 25.5541C5.07274 25.0123 6.28845 24.9644 7.44947 25.5072C7.70644 25.627 7.90522 25.7597 8.1234 25.9169C8.38999 26.11 8.47443 26.2695 8.73023 26.4262L9.215 25.9289C8.97393 25.5541 8.32334 25.0995 7.80211 24.8374C6.47702 24.1702 5.0039 24.2278 3.67593 24.8305C3.21335 25.0407 2.46535 25.5819 2.24716 25.9289Z" fill="#1D57A6"/>
<path fill-rule="evenodd" clip-rule="evenodd" d="M3.09543 26.8461L3.58707 27.4005C4.08382 27.1339 5.13268 25.9289 6.90317 26.7475C7.42105 26.9869 7.45298 27.078 7.78564 27.397L8.36667 26.7493C7.66255 26.248 7.06607 25.6367 5.70452 25.6475C4.59483 25.6567 3.78019 26.1118 3.09543 26.8461Z" fill="#1D57A6"/>
<path fill-rule="evenodd" clip-rule="evenodd" d="M4.03601 27.7912L4.56809 28.2138C4.62621 28.1745 4.65816 28.146 4.70425 28.1131C4.98907 27.909 5.32012 27.7626 5.70353 27.7547C6.44352 27.7387 6.5984 28.0611 7.06961 28.2964L7.42852 27.7912C6.66563 26.8421 4.77381 26.7594 4.03601 27.7912Z" fill="#1D57A6"/>
<path fill-rule="evenodd" clip-rule="evenodd" d="M4.86438 28.6492L5.81394 29.6006L6.59899 28.6903C5.98267 28.1097 5.52576 28.1593 4.86438 28.6492Z" fill="#1D57A6"/>
<path fill-rule="evenodd" clip-rule="evenodd" d="M54.3456 6.82299C64.2043 5.88887 60.9851 16.535 56.6436 18.8983C54.6249 19.9993 52.5421 19.689 50.0108 19.7036L54.3456 6.82299ZM45.2495 22.9178C48.3365 23.0144 54.9728 23.3393 57.3867 22.3186C64.4184 19.3474 66.4535 9.16538 62.924 5.35617C60.6176 2.86701 55.0217 3.54982 51.639 3.5009L45.2495 22.9178Z" fill="#3E4140"/>
<path fill-rule="evenodd" clip-rule="evenodd" d="M73.7955 24.3718C76.2617 23.6204 79.2425 26.2517 75.7816 26.9329C72.5457 27.5697 70.0143 25.5233 73.7955 24.3718ZM77.7201 12.7652C80.6341 11.7901 79.5449 16.4042 77.9651 17.0837C76.4611 17.7322 75.6052 16.9386 75.9188 15.2903C76.1751 13.9414 76.6522 13.1231 77.7201 12.7652ZM73.9569 18.6943C72.7238 19.0113 71.8909 19.4374 71.4761 20.3978C70.8568 21.8203 71.3762 22.6959 72.2781 23.431C69.0308 24.6478 68.0181 26.8902 69.4916 28.3784C71.8386 30.7483 82.2887 29.708 80.5392 23.5648C79.718 20.6822 75.4108 21.8483 74.6594 20.3882C75.3681 18.7353 77.0131 20.739 80.456 18.4673C82.011 17.4399 82.7315 15.5454 82.7298 12.8731L84.5771 12.8467L85.3611 10.0737C80.9803 9.50499 74.6038 9.43642 73.0341 14.1634C72.7665 14.9704 72.6423 15.8949 72.8367 16.7897C72.9295 17.2196 73.0178 17.4107 73.2369 17.7272L73.9569 18.6943Z" fill="#3E4140"/>
<path fill-rule="evenodd" clip-rule="evenodd" d="M156.679 19.9207C151.361 21.0806 152.315 12.9219 158.973 13.1962C158.657 14.4686 157.257 19.1174 156.679 19.9207ZM160.134 9.83983C155.262 10.1518 151.367 10.8526 149.93 16.53C148.235 23.2268 154.123 23.6546 159.299 22.7874L165.646 3.52851L162.221 3.49756L160.134 9.83983Z" fill="#3E4140"/>
<path fill-rule="evenodd" clip-rule="evenodd" d="M109.727 13.0429C109.306 14.7188 108.646 16.4177 108.117 18.1015C107.72 19.3638 107.679 19.4312 106.583 19.9129C102.627 21.6456 103.548 17.1134 105.105 15.0913C106.147 13.7341 107.181 12.8455 109.727 13.0429ZM106.625 21.9592C106.64 21.9906 106.696 22.0867 106.699 22.2958C106.701 22.4284 106.655 22.6926 106.652 22.969L109.871 22.9573L114.163 10.1929C111.163 9.74841 108.881 9.49377 106.126 10.5425C98.062 13.6065 98.2267 27.4067 106.625 21.9592Z" fill="#3E4140"/>
<path fill-rule="evenodd" clip-rule="evenodd" d="M179.58 13.035C179.244 14.6339 178.473 16.5009 177.975 18.1082C177.204 20.6003 174.61 20.5514 174.048 19.9308C172.877 18.6388 174.326 12.69 179.58 13.035ZM176.477 21.9592L176.517 22.9673L179.709 22.959L184 10.2648C178.384 8.67047 173.417 10.9819 171.413 14.4395C168.554 19.3739 170.424 26.0657 176.477 21.9592Z" fill="#3E4140"/>
<path fill-rule="evenodd" clip-rule="evenodd" d="M134.461 22.9279L137.847 22.9459L140.044 16.4305C140.14 16.1562 140.212 15.9258 140.271 15.7297C140.593 14.6468 140.496 14.5962 141.62 13.7812C144.64 11.5877 145.092 12.9399 144.411 15.1744L142.035 22.9672L145.231 22.9572L148.044 14.6894C148.152 14.3725 148.201 14.1061 148.238 13.9313C148.627 12.1149 148.433 10.2108 146.68 9.86454C144.681 9.47066 143.062 10.5913 141.767 11.3197L142.102 10.0669L138.745 10.008L134.461 22.9279Z" fill="#3E4140"/>
<path fill-rule="evenodd" clip-rule="evenodd" d="M94.8081 9.98874L92.4757 10.018L91.4387 12.8454L93.6975 12.8664C93.3153 14.9344 87.1236 26.0263 97.5067 22.4069L98.1485 19.0832C97.6192 19.2479 96.6345 19.7576 96.1641 19.7183C93.8852 19.5289 96.706 14.1567 97.1421 12.922L99.7705 12.8697L100.693 10.031L98.2577 10.018L99.1905 7.35073L95.7342 7.28383L94.8081 9.98874Z" fill="#3E4140"/>
<path fill-rule="evenodd" clip-rule="evenodd" d="M127.161 22.8937L130.761 22.9573L137.268 3.5257L133.592 3.51734L127.161 22.8937Z" fill="#3E4140"/>
<path fill-rule="evenodd" clip-rule="evenodd" d="M113.154 22.8971L116.522 22.959L122.992 3.51738L119.565 3.51905L113.154 22.8971Z" fill="#3E4140"/>
<path fill-rule="evenodd" clip-rule="evenodd" d="M64.0998 23.0585H67.5365L71.6605 9.96756H68.2239L64.0998 23.0585ZM71.6313 4.61335C72.5767 4.61335 73.142 5.50858 72.892 6.61245C72.6407 7.71675 71.6702 8.61323 70.7231 8.61323C69.7773 8.61323 69.2124 7.71675 69.462 6.61245C69.712 5.50858 70.6838 4.61335 71.6313 4.61335Z" fill="#3E4140"/>
<path fill-rule="evenodd" clip-rule="evenodd" d="M83.0271 23.0585H86.4617L90.5861 9.96756H87.1495L83.0271 23.0585ZM90.5565 4.61335C91.504 4.61335 92.0676 5.50858 91.8159 6.61245C91.5663 7.71675 90.5958 8.61323 89.6487 8.61323C88.7012 8.61323 88.1375 7.71675 88.3876 6.61245C88.6393 5.50858 89.6094 4.61335 90.5565 4.61335Z" fill="#3E4140"/>
<path fill-rule="evenodd" clip-rule="evenodd" d="M162.183 23.0585H165.62L169.742 9.96756H166.308L162.183 23.0585ZM169.713 4.61335C170.661 4.61335 171.224 5.50858 170.974 6.61245C170.723 7.71675 169.752 8.61323 168.805 8.61323C167.859 8.61323 167.294 7.71675 167.546 6.61245C167.796 5.50858 168.766 4.61335 169.713 4.61335Z" fill="#3E4140"/>
<path fill-rule="evenodd" clip-rule="evenodd" d="M182.551 24.9744H82.9092V26.2765H182.551V24.9744Z" fill="#3E4140"/>
<path fill-rule="evenodd" clip-rule="evenodd" d="M64.9197 24.9744H44.5829V26.2765H64.9197V24.9744Z" fill="#3E4140"/>
</svg>
