<svg width="150" height="40" viewBox="0 0 150 40" fill="none" xmlns="http://www.w3.org/2000/svg">
<path d="M34.1667 20C34.1667 10.7953 26.7048 3.33337 17.5 3.33337C8.29526 3.33337 0.833344 10.7953 0.833344 20C0.833344 28.3187 6.92807 35.2139 14.8958 36.4642V24.8177H10.6641V20H14.8958V16.3282C14.8958 12.1511 17.3841 9.84379 21.1911 9.84379C23.014 9.84379 24.9219 10.1693 24.9219 10.1693V14.2709H22.8203C20.75 14.2709 20.1042 15.5557 20.1042 16.875V20H24.7266L23.9876 24.8177H20.1042V36.4642C28.0719 35.2139 34.1667 28.3187 34.1667 20Z" fill="#1877F2"/>
<path d="M23.9876 24.8177L24.7266 20H20.1042V16.875C20.1042 15.557 20.75 14.2709 22.8203 14.2709H24.9219V10.1693C24.9219 10.1693 23.014 9.84379 21.1911 9.84379C17.3841 9.84379 14.8958 12.1511 14.8958 16.3282V20H10.6641V24.8177H14.8958V36.4642C16.6215 36.7342 18.3786 36.7342 20.1042 36.4642V24.8177H23.9876Z" fill="white"/>
<path d="M48.9161 13.1321C47.6998 13.1321 47.3482 13.6715 47.3482 14.8613V16.835H50.5924L50.2672 20.0238H47.3495V29.7009H43.4562V20.0238H40.8333V16.835H43.4562V14.9155C43.4562 11.699 44.7531 10 48.3716 10C49.1299 9.99829 49.8876 10.0433 50.6403 10.1349V13.1359L48.9161 13.1321Z" fill="#262626"/>
<path d="M50.8621 22.8618C50.8621 19.2672 52.5649 16.5599 56.133 16.5599C58.079 16.5599 59.2675 17.5607 59.836 18.8034V16.8347H63.5654V29.7006H59.836V27.7546C59.2953 28.9985 58.079 29.9715 56.133 29.9715C52.5649 29.9715 50.8621 27.2681 50.8621 23.6697V22.8618ZM54.7541 23.7277C54.7541 25.646 55.4562 26.9164 57.2673 26.9164C58.863 26.9164 59.6734 25.7543 59.6734 23.9167V22.6248C59.6734 20.7872 58.863 19.6252 57.2673 19.6252C55.4562 19.6252 54.7541 20.8956 54.7541 22.8139V23.7277Z" fill="#262626"/>
<path d="M71.6746 16.5646C73.187 16.5646 74.6201 16.8897 75.404 17.4292L74.5394 20.1869C73.7285 19.8007 72.8425 19.5975 71.9443 19.592C69.8357 19.592 68.9194 20.8082 68.9194 22.8904V23.6466C68.9194 25.7287 69.8382 26.945 71.9443 26.945C72.8425 26.9393 73.7285 26.7363 74.5394 26.3501L75.404 29.1065C74.6201 29.6472 73.1883 29.9724 71.6746 29.9724C67.1057 29.9724 65.0249 27.5122 65.0249 23.5659V22.971C65.0249 19.0248 67.1057 16.5646 71.6746 16.5646Z" fill="#262626"/>
<path d="M75.9171 23.7602V22.6258C75.9171 18.9771 77.998 16.576 82.2429 16.576C86.2433 16.576 88.0003 19.0086 88.0003 22.5767V24.6311H79.8079C79.8898 26.388 80.6737 27.172 82.8327 27.172C84.2935 27.172 85.8337 26.8745 86.9693 26.388L87.6814 29.0537C86.6542 29.5957 84.5456 30.0003 82.6815 30.0003C77.7547 29.999 75.9171 27.5413 75.9171 23.7602ZM79.8091 22.0839H84.5128V21.76C84.5128 20.3546 83.9457 19.2392 82.2441 19.2392C80.4859 19.2405 79.8091 20.3496 79.8091 22.0788V22.0839Z" fill="#262626"/>
<path d="M102.428 23.6744C102.428 27.269 100.699 29.9763 97.1342 29.9763C95.1882 29.9763 93.8371 29.0033 93.2964 27.7593V29.7053H89.6211V10.375L93.5132 10.0221V18.6178C94.0803 17.4835 95.3243 16.5634 97.1355 16.5634C100.704 16.5634 102.429 19.2669 102.429 22.8653L102.428 23.6744ZM98.5357 22.7821C98.5357 20.9709 97.8337 19.6198 95.9684 19.6198C94.3727 19.6198 93.5081 20.7542 93.5081 22.593V23.9442C93.5081 25.7818 94.3727 26.9174 95.9684 26.9174C97.8337 26.9174 98.5357 25.5663 98.5357 23.7551V22.7821Z" fill="#262626"/>
<path d="M103.73 23.5924V22.9446C103.73 19.2403 105.838 16.5646 110.136 16.5646C114.434 16.5646 116.544 19.2403 116.544 22.9446V23.5924C116.544 27.2954 114.435 29.9724 110.138 29.9724C105.84 29.9724 103.73 27.2954 103.73 23.5924ZM112.651 22.6736C112.651 20.9708 111.947 19.6197 110.13 19.6197C108.313 19.6197 107.616 20.9708 107.616 22.6736V23.8634C107.616 25.5661 108.319 26.9173 110.13 26.9173C111.941 26.9173 112.651 25.5661 112.651 23.8634V22.6736Z" fill="#262626"/>
<path d="M117.838 23.5924V22.9446C117.838 19.2403 119.947 16.5646 124.245 16.5646C128.543 16.5646 130.651 19.2403 130.651 22.9446V23.5924C130.651 27.2954 128.543 29.9724 124.245 29.9724C119.947 29.9724 117.838 27.2954 117.838 23.5924ZM126.759 22.6736C126.759 20.9708 126.056 19.6197 124.245 19.6197C122.433 19.6197 121.731 20.9708 121.731 22.6736V23.8634C121.731 25.5661 122.433 26.9173 124.245 26.9173C126.056 26.9173 126.759 25.5661 126.759 23.8634V22.6736Z" fill="#262626"/>
<path d="M136.003 22.9711L139.841 16.8357H143.976L139.949 23.1879L144.138 29.7015H140.003L136.003 23.3997V29.7015H132.109V10.375L136.003 10.0221V22.9711Z" fill="#262626"/>
</svg>
