<svg width="32" height="32" viewBox="0 0 32 32" fill="none" xmlns="http://www.w3.org/2000/svg">
<g clip-path="url(#clip0_759_2025)">
<path d="M16 32C24.8366 32 32 24.8366 32 16C32 7.16344 24.8366 0 16 0C7.16344 0 0 7.16344 0 16C0 24.8366 7.16344 32 16 32Z" fill="url(#paint0_linear_759_2025)"/>
<path d="M19.3991 7.11108H12.608C9.57867 7.11108 7.11823 9.57153 7.11823 12.6009V19.392C7.11823 22.4213 9.57867 24.8818 12.608 24.8818H19.3991C22.4284 24.8818 24.8889 22.4213 24.8889 19.392V12.6009C24.8889 9.57153 22.4284 7.11108 19.3991 7.11108ZM22.9049 19.3991C22.9049 21.3333 21.3333 22.912 19.392 22.912H12.6009C10.6667 22.912 9.088 21.3404 9.088 19.3991V12.608C9.088 10.6738 10.6596 9.09508 12.6009 9.09508H19.392C21.3262 9.09508 22.9049 10.6666 22.9049 12.608V19.3991Z" fill="white"/>
<path d="M16 11.456C13.4969 11.456 11.456 13.4969 11.456 16C11.456 18.5031 13.4969 20.544 16 20.544C18.5031 20.544 20.544 18.5031 20.544 16C20.544 13.4969 18.5031 11.456 16 11.456V11.456ZM16 18.7591C14.4782 18.7591 13.2409 17.5218 13.2409 16C13.2409 14.4782 14.4782 13.2409 16 13.2409C17.5218 13.2409 18.7591 14.4782 18.7591 16C18.7591 17.5218 17.5218 18.7591 16 18.7591Z" fill="white"/>
<path d="M20.8901 11.9541C21.3087 11.8863 21.5931 11.4919 21.5252 11.0732C21.4573 10.6546 21.0629 10.3702 20.6443 10.4381C20.2257 10.506 19.9413 10.9003 20.0092 11.319C20.077 11.7376 20.4714 12.022 20.8901 11.9541Z" fill="white"/>
</g>
<defs>
<linearGradient id="paint0_linear_759_2025" x1="3.81717" y1="28.1828" x2="26.555" y2="5.44505" gradientUnits="userSpaceOnUse">
<stop stop-color="#FEE411"/>
<stop offset="0.0518459" stop-color="#FEDB16"/>
<stop offset="0.1381" stop-color="#FEC125"/>
<stop offset="0.2481" stop-color="#FE983D"/>
<stop offset="0.3762" stop-color="#FE5F5E"/>
<stop offset="0.5" stop-color="#FE2181"/>
<stop offset="1" stop-color="#9000DC"/>
</linearGradient>
<clipPath id="clip0_759_2025">
<rect width="32" height="32" fill="white"/>
</clipPath>
</defs>
</svg>
