<svg width="150" height="40" viewBox="0 0 150 40" fill="none" xmlns="http://www.w3.org/2000/svg">
<path d="M17.5 36.6667C26.7048 36.6667 34.1667 29.2048 34.1667 20C34.1667 10.7953 26.7048 3.33337 17.5 3.33337C8.29526 3.33337 0.833344 10.7953 0.833344 20C0.833344 29.2048 8.29526 36.6667 17.5 36.6667Z" fill="url(#paint0_linear_763_3252)"/>
<path d="M21.0407 10.7407H13.9666C10.8111 10.7407 8.24811 13.3037 8.24811 16.4592V23.5333C8.24811 26.6889 10.8111 29.2518 13.9666 29.2518H21.0407C24.1963 29.2518 26.7592 26.6889 26.7592 23.5333V16.4592C26.7592 13.3037 24.1963 10.7407 21.0407 10.7407ZM24.6926 23.5407C24.6926 25.5555 23.0555 27.2 21.0333 27.2H13.9592C11.9444 27.2 10.3 25.5629 10.3 23.5407V16.4666C10.3 14.4518 11.937 12.8074 13.9592 12.8074H21.0333C23.0481 12.8074 24.6926 14.4444 24.6926 16.4666V23.5407Z" fill="white"/>
<path d="M17.4999 15.267C14.8925 15.267 12.7666 17.3929 12.7666 20.0003C12.7666 22.6077 14.8925 24.7336 17.4999 24.7336C20.1073 24.7336 22.2332 22.6077 22.2332 20.0003C22.2332 17.3929 20.1073 15.267 17.4999 15.267V15.267ZM17.4999 22.8744C15.9147 22.8744 14.6258 21.5855 14.6258 20.0003C14.6258 18.4151 15.9147 17.1262 17.4999 17.1262C19.0851 17.1262 20.374 18.4151 20.374 20.0003C20.374 21.5855 19.0851 22.8744 17.4999 22.8744Z" fill="white"/>
<path d="M22.5943 15.786C23.0304 15.7153 23.3266 15.3045 23.2559 14.8684C23.1852 14.4324 22.7744 14.1361 22.3383 14.2068C21.9022 14.2775 21.606 14.6884 21.6767 15.1244C21.7474 15.5605 22.1582 15.8567 22.5943 15.786Z" fill="white"/>
<path d="M46.1885 8.57114C44.0588 9.46258 41.7177 11.981 40.9782 15.1422C40.0418 19.1475 43.9387 20.8412 44.2583 20.2859C44.6345 19.6333 43.56 19.4127 43.3389 17.3345C43.053 14.6504 44.3009 11.6512 45.8713 10.3353C46.1632 10.0908 46.1493 10.4311 46.1493 11.0605C46.1493 12.1861 46.0871 22.2905 46.0871 24.3993C46.0871 27.2527 45.9693 28.1538 45.7576 29.0442C45.5431 29.9465 45.1983 30.5562 45.4596 30.791C45.7515 31.0537 46.9978 30.4288 47.7194 29.4218C48.5846 28.2141 48.8874 26.7636 48.9418 25.1885C49.0075 23.2897 49.0047 20.2767 49.0075 18.5581C49.0101 16.9819 49.034 12.3664 48.9799 9.5917C48.9666 8.91113 47.0791 8.19712 46.1884 8.57032L46.1885 8.57114ZM121.812 21.9251C121.743 23.4086 121.415 24.5681 121.008 25.386C120.219 26.9693 118.581 27.461 117.886 25.1848C117.507 23.9441 117.49 21.872 117.762 20.1406C118.039 18.3768 118.813 17.0448 120.095 17.1649C121.36 17.2837 121.951 18.9128 121.812 21.9251ZM100.498 31.1288C100.481 33.5937 100.093 35.7548 99.2612 36.3825C98.0814 37.2725 96.4955 36.6049 96.8239 34.8063C97.1144 33.2147 98.4885 31.5892 100.502 29.6032C100.502 29.6032 100.506 30.0561 100.498 31.1288ZM100.176 21.9108C100.104 23.2619 99.7535 24.6192 99.3714 25.3862C98.5826 26.9695 96.9335 27.4645 96.2501 25.185C95.7829 23.6276 95.8948 21.6119 96.126 20.3419C96.426 18.694 97.1531 17.1653 98.4591 17.1653C99.7288 17.1653 100.355 18.5582 100.176 21.9108ZM87.8288 21.8901C87.7514 23.3211 87.4722 24.5173 87.0242 25.3862C86.2137 26.9586 84.6102 27.4573 83.903 25.185C83.3932 23.5466 83.5667 21.3125 83.7788 20.1056C84.0935 18.3147 84.8816 17.045 86.112 17.1653C87.3757 17.2887 87.9901 18.9128 87.8288 21.8901ZM144.413 23.5616C144.104 23.5616 143.963 23.88 143.846 24.416C143.442 26.2798 143.017 26.7007 142.468 26.7007C141.856 26.7007 141.305 25.7778 141.164 23.9304C141.053 22.4777 141.07 19.8033 141.213 17.143C141.242 16.5965 141.091 16.0556 139.625 15.5231C138.994 15.294 138.077 14.9567 137.62 16.0588C136.33 19.1725 135.826 21.6445 135.707 22.6488C135.701 22.7007 135.637 22.7113 135.626 22.5899C135.55 21.7856 135.381 20.324 135.36 17.2532C135.356 16.6541 135.229 16.1441 134.568 15.7266C134.139 15.4556 132.836 14.9765 132.366 15.5465C131.96 16.0127 131.489 17.2674 131 18.7546C130.602 19.9634 130.326 20.7811 130.326 20.7811C130.326 20.7811 130.331 17.5196 130.336 16.2824C130.338 15.8157 130.017 15.6602 129.921 15.632C129.486 15.5059 128.63 15.2952 128.267 15.2952C127.819 15.2952 127.709 15.5458 127.709 15.911C127.709 15.9588 127.638 20.2051 127.638 23.1743C127.638 23.3033 127.638 23.444 127.639 23.5935C127.391 24.9582 126.587 26.8107 125.713 26.8107C124.837 26.8107 124.424 26.0362 124.424 22.4964C124.424 20.4314 124.486 19.5335 124.516 18.04C124.534 17.1797 124.568 16.5191 124.566 16.3692C124.56 15.9095 123.765 15.6778 123.395 15.5921C123.023 15.5058 122.7 15.4723 122.448 15.4867C122.091 15.5068 121.839 15.741 121.839 16.0631C121.839 16.2357 121.841 16.5641 121.841 16.5641C121.381 15.8417 120.641 15.3389 120.149 15.1932C118.824 14.7996 117.442 15.1483 116.399 16.6077C115.57 17.7673 115.07 19.0806 114.874 20.9675C114.73 22.347 114.777 23.7459 115.032 24.9289C114.723 26.2638 114.15 26.8107 113.523 26.8107C112.611 26.8107 111.951 25.3234 112.027 22.7511C112.078 21.0592 112.417 19.8719 112.787 18.1542C112.944 17.4219 112.816 17.0386 112.495 16.6711C112.2 16.3342 111.571 16.162 110.668 16.3738C110.025 16.5247 109.105 16.6871 108.263 16.8118C108.263 16.8118 108.314 16.6091 108.355 16.2519C108.574 14.3783 106.538 14.5303 105.889 15.1287C105.501 15.486 105.237 15.9074 105.137 16.665C104.978 17.8673 105.959 18.4344 105.959 18.4344C105.637 19.9071 104.848 21.8309 104.034 23.2219C103.598 23.9671 103.264 24.5193 102.834 25.1063C102.832 24.8877 102.831 24.6692 102.83 24.4516C102.82 21.3554 102.862 18.9186 102.88 18.0403C102.897 17.18 102.932 16.5369 102.93 16.387C102.925 16.0508 102.729 15.9238 102.32 15.763C101.959 15.6208 101.532 15.5224 101.089 15.488C100.53 15.4444 100.194 15.7409 100.202 16.0916C100.204 16.1578 100.204 16.5642 100.204 16.5642C99.7443 15.8418 99.0049 15.339 98.5129 15.1933C97.1879 14.7999 95.8052 15.1486 94.7622 16.6079C93.9335 17.7674 93.3908 19.3946 93.237 20.9533C93.0937 22.406 93.1202 23.6405 93.3155 24.6805C93.1048 25.7219 92.499 26.8108 91.814 26.8108C90.9384 26.8108 90.4401 26.0363 90.4401 22.4966C90.4401 20.4316 90.5021 19.5337 90.5326 18.0403C90.5503 17.18 90.5844 16.5192 90.5825 16.3695C90.576 15.9098 89.7811 15.6781 89.4112 15.5923C89.0241 15.5028 88.69 15.4698 88.4334 15.4887C88.0949 15.514 87.8569 15.8171 87.8569 16.0432V16.5642C87.3971 15.8418 86.6577 15.339 86.1658 15.1933C84.8407 14.7999 83.4657 15.1542 82.4151 16.6079C81.73 17.5557 81.1753 18.6065 80.8898 20.9326C80.8074 21.6048 80.7709 22.2343 80.7756 22.8227C80.5024 24.4935 79.2958 26.4192 78.3087 26.4192C77.7311 26.4192 77.181 25.2989 77.181 22.9113C77.181 19.7308 77.3779 15.2026 77.4111 14.7661C77.4111 14.7661 78.6583 14.745 78.8998 14.7421C79.5219 14.7353 80.0853 14.75 80.9138 14.7076C81.3294 14.6865 81.7298 13.195 81.3009 13.0104C81.1065 12.9269 79.7325 12.8537 79.1879 12.8421C78.7299 12.8317 77.4549 12.7374 77.4549 12.7374C77.4549 12.7374 77.5693 9.73172 77.5959 9.41421C77.6185 9.14958 77.2761 9.01333 77.0798 8.93066C76.6024 8.72873 76.1752 8.63205 75.6689 8.52767C74.9694 8.38337 74.6521 8.52452 74.5901 9.1149C74.4967 10.0109 74.4484 12.6353 74.4484 12.6353C73.9351 12.6353 72.1816 12.5349 71.6681 12.5349C71.1911 12.5349 70.6762 14.5866 71.3357 14.6118C72.0946 14.6413 73.417 14.6667 74.2937 14.6931C74.2937 14.6931 74.2547 19.296 74.2547 20.717C74.2547 20.8682 74.256 21.0138 74.2563 21.1551C73.7738 23.67 72.0743 25.0285 72.0743 25.0285C72.4393 23.3648 71.6937 22.1153 70.3508 21.0577C69.856 20.668 68.8793 19.9301 67.7865 19.1216C67.7865 19.1216 68.4194 18.4978 68.9807 17.2428C69.3784 16.3538 69.3956 15.3364 68.4194 15.1121C66.8064 14.7411 65.4764 15.9257 65.0797 17.1904C64.7724 18.1701 64.9363 18.8971 65.5384 19.6522C65.5824 19.7074 65.63 19.7638 65.6792 19.8206C65.3151 20.5223 64.8149 21.4672 64.3913 22.1999C63.2154 24.2343 62.3272 25.8434 61.6559 25.8434C61.1193 25.8434 61.1264 24.2097 61.1264 22.6802C61.1264 21.3615 61.2238 19.379 61.3016 17.3265C61.3273 16.6476 60.9879 16.2609 60.4189 15.9107C60.0732 15.6979 59.3353 15.2795 58.908 15.2795C58.2684 15.2795 56.423 15.3665 54.6794 20.4102C54.4597 21.0459 54.028 22.2043 54.028 22.2043L54.0651 16.1391C54.0651 15.9968 53.9894 15.8594 53.816 15.7653C53.5221 15.6058 52.7374 15.2795 52.0396 15.2795C51.7071 15.2795 51.5412 15.4341 51.5412 15.7424L51.4803 25.2315C51.4803 25.9525 51.4991 26.7936 51.5704 27.1615C51.6414 27.5298 51.7565 27.8295 51.899 28.0078C52.0413 28.1857 52.2059 28.3214 52.4773 28.3774C52.7299 28.4294 54.1129 28.6071 54.1848 28.0785C54.271 27.4451 54.2743 26.7599 55.0005 24.2047C56.1312 20.2265 57.6053 18.2855 58.2983 17.5962C58.4195 17.4757 58.5578 17.4685 58.5512 17.6657C58.5216 18.5379 58.4175 20.7172 58.3475 22.5688C58.1598 27.5237 59.0612 28.4421 60.3493 28.4421C61.3348 28.4421 62.7239 27.4629 64.2131 24.9842C65.1415 23.4396 66.0429 21.925 66.6905 20.8334C67.1419 21.2512 67.6484 21.7008 68.1545 22.1812C69.3307 23.2976 69.7169 24.3583 69.4607 25.3646C69.2647 26.1339 68.5267 26.9267 67.2132 26.1562C66.8303 25.9313 66.6669 25.7576 66.282 25.5042C66.0751 25.368 65.7594 25.3273 65.57 25.47C65.0783 25.8408 64.797 26.3124 64.6364 26.8963C64.4802 27.4645 65.0492 27.7648 65.639 28.0275C66.1469 28.2536 67.2385 28.4585 67.9347 28.4818C70.6472 28.5725 72.8201 27.1721 74.3327 23.5598C74.6035 26.6795 75.7559 28.4449 77.758 28.4449C79.0966 28.4449 80.4386 26.7147 81.0255 25.0126C81.194 25.7064 81.4434 26.3097 81.7654 26.82C83.3082 29.2643 86.3011 28.7382 87.8044 26.6626C88.2692 26.0212 88.34 25.7907 88.34 25.7907C88.5592 27.7506 90.1376 28.4354 91.0413 28.4354C92.0534 28.4354 93.0984 27.9569 93.8308 26.3081C93.9166 26.487 94.0103 26.6579 94.1126 26.8199C95.6553 29.2643 98.6482 28.7381 100.152 26.6625C100.222 26.5651 100.284 26.4768 100.338 26.3975L100.382 27.6849C100.382 27.6849 99.5242 28.4717 98.9978 28.9543C96.6808 31.0801 94.9189 32.6929 94.7893 34.571C94.6229 36.9658 96.5652 37.8558 98.0345 37.9725C99.595 38.0963 100.931 37.2343 101.753 36.028C102.475 34.9661 102.948 32.6808 102.913 30.4237C102.899 29.5198 102.877 28.3706 102.859 27.1387C103.673 26.1929 104.591 24.9977 105.436 23.5985C106.356 22.0737 107.343 20.0261 107.848 18.4326C107.848 18.4326 108.705 18.4399 109.62 18.38C109.913 18.3609 109.997 18.4206 109.943 18.6352C109.878 18.8944 108.787 23.1008 109.782 25.9029C110.464 27.8212 111.999 28.4383 112.91 28.4383C113.976 28.4383 114.995 27.6334 115.542 26.4381C115.608 26.5714 115.677 26.7003 115.752 26.8194C117.294 29.2637 120.277 28.7345 121.791 26.662C122.132 26.1944 122.326 25.7901 122.326 25.7901C122.651 27.8185 124.229 28.4452 125.132 28.4452C126.073 28.4452 126.966 28.0593 127.691 26.3446C127.721 27.0996 127.769 27.717 127.844 27.9116C127.89 28.0306 128.158 28.18 128.352 28.2522C129.213 28.5715 130.091 28.4205 130.416 28.3548C130.641 28.3093 130.817 28.1287 130.841 27.6625C130.904 26.4383 130.865 24.3815 131.236 22.8529C131.859 20.2876 132.44 19.2925 132.716 18.7998C132.87 18.5238 133.044 18.4783 133.051 18.7704C133.064 19.3615 133.093 21.0972 133.334 23.4293C133.512 25.1445 133.748 26.1583 133.93 26.4791C134.45 27.3966 135.091 27.4401 135.613 27.4401C135.945 27.4401 136.64 27.3483 136.578 26.7644C136.548 26.4798 136.601 24.7209 137.215 22.1936C137.616 20.5431 138.285 19.0518 138.526 18.5066C138.615 18.3056 138.656 18.4641 138.655 18.4949C138.604 19.6316 138.49 23.3493 138.953 25.3826C139.581 28.1371 141.396 28.4454 142.029 28.4454C143.38 28.4454 144.485 27.4178 144.857 24.7141C144.947 24.0635 144.814 23.5611 144.416 23.5611" fill="#262626"/>
<defs>
<linearGradient id="paint0_linear_763_3252" x1="4.80957" y1="32.6905" x2="28.4948" y2="9.0053" gradientUnits="userSpaceOnUse">
<stop stop-color="#FEE411"/>
<stop offset="0.0518459" stop-color="#FEDB16"/>
<stop offset="0.1381" stop-color="#FEC125"/>
<stop offset="0.2481" stop-color="#FE983D"/>
<stop offset="0.3762" stop-color="#FE5F5E"/>
<stop offset="0.5" stop-color="#FE2181"/>
<stop offset="1" stop-color="#9000DC"/>
</linearGradient>
</defs>
</svg>
