<svg width="56" height="56" viewBox="0 0 56 56" fill="none" xmlns="http://www.w3.org/2000/svg">
<g clip-path="url(#clip0_4_2088)">
<mask id="mask0_4_2088" style="mask-type:alpha" maskUnits="userSpaceOnUse" x="0" y="0" width="56" height="56">
<circle cx="28" cy="28" r="28" fill="#FFEE00"/>
</mask>
<g mask="url(#mask0_4_2088)">
<circle cx="28" cy="28" r="28" fill="#FFEE00"/>
<circle cx="29.1232" cy="25.1583" r="14.0163" fill="white"/>
<path fill-rule="evenodd" clip-rule="evenodd" d="M14.647 59.8512C14.654 59.8213 14.6725 59.81 14.7024 59.8174C14.9258 59.8827 15.0759 59.8212 15.1204 59.5763C15.1605 59.5471 15.2006 59.5179 15.2407 59.4888C15.2868 59.4636 15.3329 59.4383 15.3789 59.413C15.4015 59.3782 15.4334 59.3629 15.4747 59.3672C15.5238 59.337 15.5729 59.3068 15.622 59.2767C15.7368 59.1237 15.9139 59.0837 16.0799 59.0232C16.0896 59.1024 16.0991 59.1818 16.1086 59.2613C16.1265 59.4193 16.0254 59.612 16.2405 59.7122C16.2405 59.7122 16.2339 59.7415 16.2338 59.7415C16.3655 59.9189 16.5578 59.8614 16.7297 59.862C18.0033 59.8658 19.277 59.8661 20.5506 59.863C20.7236 59.8626 20.9134 59.9168 21.0557 59.7576C21.0943 59.7475 21.1332 59.7392 21.1724 59.7324C21.4549 59.2523 21.2434 58.7293 21.2986 58.2291C21.3266 57.9762 21.2591 57.7001 21.554 57.5531C22.0336 57.5554 22.5131 57.5576 22.9927 57.56C23.1869 57.7696 23.3034 57.7049 23.3673 57.454C23.8824 57.6895 24.4363 57.3117 24.9509 57.5545C26.2845 57.5577 27.6181 57.5653 28.9517 57.5601C29.1822 57.5592 29.4318 57.6409 29.6419 57.467C29.7346 57.4617 29.8273 57.4563 29.92 57.451C30.2555 57.5518 30.1103 57.2822 30.1167 57.171C30.1684 56.2697 30.1172 55.3669 30.1616 54.4627C30.1822 54.0434 30.316 53.5083 29.9542 53.1063C29.8402 52.7396 29.9191 52.3545 29.8147 51.978C29.5763 51.1182 28.9196 50.5791 28.3649 49.9589C28.0486 49.6053 27.723 49.2598 27.4016 48.9107C27.0739 49.2585 26.7693 49.6319 26.4142 49.9489C25.5022 50.7632 24.9734 51.7532 24.9202 52.9843C24.6822 53.2255 24.9156 53.563 24.7595 53.8255C24.266 53.5142 24.046 52.961 23.6131 52.608C23.6121 52.5313 23.6112 52.4546 23.6102 52.3779C24.0382 51.9176 24.1745 51.4159 24.0035 50.7781C23.8489 50.201 24.0484 49.6647 24.548 49.289C25.0082 48.9429 25.4763 48.6068 25.9463 48.2739C26.4249 47.9348 26.8041 47.4994 27.1684 47.0472C27.3255 46.8523 27.5066 46.7322 27.7038 46.9937C28.3873 47.9002 29.3174 48.5156 30.2196 49.1699C30.8457 49.624 31.1036 50.2668 30.8994 51.0215C30.7827 51.4528 30.8613 51.7766 31.1186 52.1258C31.3846 52.4868 31.6364 52.9963 31.3931 53.3604C30.843 54.1837 30.9287 54.9016 31.4636 55.6482C31.4993 56.202 31.343 56.767 31.5597 57.3103L31.5859 57.3557C31.5809 57.6277 31.6819 57.9283 31.9718 57.7345C32.3013 57.5141 32.6161 57.6081 32.9376 57.5692C33.4031 57.5128 33.8846 57.6818 34.3395 57.4708C34.4258 57.4681 34.5121 57.4654 34.5984 57.4624C34.5972 58.1469 34.5929 58.8315 34.5995 59.516C34.6003 59.5911 34.5007 59.7795 34.734 59.7153C34.7732 59.7223 34.8115 59.7329 34.8488 59.747C35.5293 59.9376 36.2096 59.9371 36.8896 59.7442C36.9744 59.7262 37.0592 59.7082 37.144 59.6903C37.3418 59.7068 37.5396 59.7233 37.7374 59.7399C38.0748 59.9918 38.464 59.8047 38.8236 59.8682C38.8236 59.9055 38.8235 59.9428 38.8233 59.9801C30.9307 59.9826 23.0382 59.9853 15.1456 59.9862C14.97 59.9862 14.7765 60.0307 14.647 59.8512Z" fill="#F99204"/>
<path fill-rule="evenodd" clip-rule="evenodd" d="M16.1937 45.7474C16.0135 45.2671 16.0976 44.7649 16.1243 44.281C16.156 43.7072 16.0328 43.4198 15.3935 43.5328C15.0939 43.5858 14.7892 43.5381 14.6936 43.1629C14.6852 43.1296 14.7499 43.0778 14.7805 43.0347C14.8604 43.0453 14.9405 43.0558 15.0206 43.0662C15.3291 43.4131 15.7116 43.1645 16.047 43.1652C24.1319 43.1813 32.217 43.1784 40.302 43.1722C40.5287 43.172 40.7891 43.2793 40.9804 43.0503C40.9957 43.015 41.0078 42.9787 41.0165 42.9414C41.0482 42.9141 41.0799 42.8869 41.1116 42.8597C41.4075 43.3682 41.0557 43.4834 40.6773 43.5286C39.7768 43.6361 39.7755 43.6251 39.774 44.5201C39.7736 44.8206 39.7684 45.1212 39.7738 45.4216C39.7798 45.7567 39.6679 46.0072 39.3215 46.1056C38.9094 46.1171 38.5019 46.1015 38.092 46.0262C37.4859 45.9148 36.8748 45.902 36.2761 46.0945C36.2005 46.0844 36.1249 46.0744 36.0492 46.0645C36.0147 45.2871 36.5669 44.7068 36.7542 43.9964C36.8739 43.5422 36.7364 43.5313 36.3938 43.5386C35.8334 43.5505 35.2726 43.5435 34.712 43.5444C30.7755 43.5425 26.8389 43.5374 22.9023 43.5426C22.3637 43.5433 21.6795 43.3187 21.3231 43.6349C20.9243 43.9887 21.2113 44.697 21.1848 45.2493C21.1519 45.9361 21.0295 46.1033 20.3197 46.079C19.4404 46.0489 18.5658 45.9048 17.6821 45.9692C17.5149 45.5581 17.3611 45.0712 17.7587 44.7866C18.1564 44.502 18.1299 44.1477 18.0879 43.8158C18.0392 43.4312 17.6542 43.5591 17.3889 43.5433C17.2084 43.5325 17.0252 43.5566 16.846 43.5382C16.3905 43.4916 16.2269 43.7284 16.2289 44.1421C16.2314 44.6658 16.2339 45.1895 16.2364 45.7132L16.1937 45.7474Z" fill="#C01B28"/>
<path fill-rule="evenodd" clip-rule="evenodd" d="M34.9797 35.2037C34.967 35.162 34.9543 35.1203 34.9416 35.0786C34.9881 34.6066 34.886 34.1579 34.7276 33.7181C34.7373 33.6894 34.7374 33.6607 34.7278 33.6318C34.6931 33.3392 34.8006 33.0272 34.6074 32.7565C34.4494 30.6515 33.9972 28.5996 33.4662 26.5645C33.1727 25.4395 32.8516 24.3205 32.3816 23.2512C32.3273 23.1279 32.3283 22.9803 32.3037 22.844C33.1661 23.1608 33.5802 23.916 33.9934 24.6419C35.175 26.7179 35.7001 29.0169 36.1682 31.3276C36.3958 32.4506 36.5667 33.5851 36.7633 34.7145C36.8132 35.2434 36.8631 35.7724 36.913 36.301C36.902 36.5063 36.7064 36.6651 36.7641 36.8882L36.7644 36.8847C36.1084 37.2276 35.6282 38.1853 35.7017 39.0047C35.6522 39.1735 35.5153 39.1908 35.3712 39.1956C35.2776 37.9829 35.1841 36.7702 35.0905 35.5576" fill="#FF0000"/>
<path fill-rule="evenodd" clip-rule="evenodd" d="M26.7371 19.6149C26.5019 20.2147 26.1091 20.7197 25.7599 21.2514C25.4147 21.7768 25.1792 22.3428 25.1681 22.984C25.0479 23.3046 24.9277 23.6251 24.8074 23.9457C24.6581 23.9587 24.5325 24.0134 24.4742 24.1617C24.177 24.9175 23.9139 25.6888 23.5772 26.4264C23.2658 27.1085 23.1683 27.8395 22.9754 28.5485C22.415 30.6091 21.9698 32.6898 21.9054 34.8352C21.6327 35.4938 21.7061 36.2131 21.5459 36.8914C21.4113 38.4603 21.1896 40.0247 21.3006 41.6064C21.2639 41.6866 21.2271 41.7669 21.1903 41.8472C21.181 41.6272 21.1615 41.407 21.1643 41.1872C21.1707 40.6756 20.991 40.2953 20.4668 40.1415C20.4694 39.094 20.7201 38.0635 20.6813 37.0131C20.9992 36.3153 20.8144 35.5605 20.9095 34.834C21.2939 31.8985 21.7539 28.9803 22.5221 26.1201C22.8219 25.004 23.23 23.9169 23.5888 22.8166C24.2282 21.6152 24.9113 20.4442 25.9005 19.486C26.1053 19.5106 26.3102 19.5353 26.515 19.56C26.589 19.5783 26.6631 19.5966 26.7371 19.6149Z" fill="#FBAE34"/>
<path fill-rule="evenodd" clip-rule="evenodd" d="M23.5893 22.8167C23.2306 23.917 22.8225 25.004 22.5227 26.1202C21.7545 28.9804 21.2945 31.8986 20.9101 34.8341C20.815 35.5605 20.9998 36.3154 20.682 37.0132C20.2875 37.2231 19.8937 36.9547 19.4992 37.0112C19.3332 36.7699 19.1673 36.5286 19.0015 36.2872C19.0319 35.8828 19.0624 35.4783 19.0929 35.0739C19.1087 34.9142 19.1244 34.7544 19.1401 34.5947C19.2122 34.1099 19.2844 33.6252 19.3565 33.1405C19.383 33.1076 19.3895 33.0712 19.3759 33.0312C19.4485 32.9642 19.4656 32.8832 19.4365 32.7905C19.4511 32.6664 19.4657 32.5423 19.4803 32.4181C19.4906 32.3401 19.5009 32.2621 19.5112 32.1841C19.8771 30.5815 20.1715 28.9604 20.6988 27.3987C21.1818 25.968 21.7214 24.5621 22.7522 23.414C22.9843 23.1554 23.2099 22.8744 23.5893 22.8167Z" fill="#FF0000"/>
<path fill-rule="evenodd" clip-rule="evenodd" d="M38.5572 47.0824C38.4704 48.7862 38.6134 50.4583 39.1875 52.0813C39.6672 53.4374 39.7651 54.7898 39.0319 56.1044C38.4819 55.995 37.9323 55.8803 37.3681 55.8702C37.7239 54.8356 37.3496 53.9511 36.6737 53.2277C36.0945 52.6077 36.1189 51.9174 36.1922 51.2026C36.2344 50.791 36.4194 50.3954 36.5479 49.9948C36.8392 49.086 37.3407 48.1888 36.8931 47.1846C37.446 47.1222 38.0101 47.2409 38.5572 47.0824Z" fill="#F79507"/>
<path fill-rule="evenodd" clip-rule="evenodd" d="M32.187 6.25109C32.2857 6.26767 32.3954 6.26185 32.4815 6.30414C33.8912 6.99653 35.2876 6.81809 36.6801 6.25111C36.7863 6.20787 36.8935 6.16722 37.1246 6.07661C36.4944 7.03493 35.6497 7.46397 34.6817 7.82849C35.2267 8.35267 35.8821 8.19786 36.6227 8.23069C36.0931 8.68278 35.5983 8.83583 35.0674 8.90805C34.3218 8.84859 33.5764 8.78914 32.8308 8.7297C31.7844 8.38387 30.7342 8.08998 29.6136 8.35341C29.3479 8.41587 29.0862 8.5596 28.7969 8.46143C29.0061 7.67343 29.777 7.51869 30.3356 7.15349C30.9057 6.7807 31.5661 6.54615 32.187 6.25109Z" fill="#E70000"/>
<path fill-rule="evenodd" clip-rule="evenodd" d="M21.1901 41.847C21.2268 41.7668 21.2636 41.6865 21.3003 41.6063C22.4053 41.9304 23.5414 41.8298 24.6685 41.8531C24.7093 41.8518 24.7501 41.8506 24.791 41.8493C24.7112 42.2141 24.5997 42.589 25.1981 42.5871C28.371 42.5768 31.544 42.5705 34.7169 42.5629C35.3215 42.565 35.9261 42.5672 36.5307 42.5694C37.6137 42.5695 38.6967 42.5697 39.7797 42.5698C40.0526 42.5761 40.3258 42.5772 40.5984 42.5905C40.8076 42.6006 41.0459 42.5697 41.1109 42.8602C41.0792 42.8874 41.0475 42.9147 41.0157 42.9419C34.6583 42.9407 28.301 42.9391 21.9437 42.9403C21.7691 42.9404 21.5772 42.8861 21.431 43.0425L20.9365 43.0397C20.7466 42.871 20.5151 42.9429 20.3023 42.942C18.7187 42.9349 17.1351 42.9403 15.5515 42.9323C15.339 42.9312 15.0289 43.0542 15.0269 42.6451C15.1092 42.6351 15.1916 42.6251 15.274 42.6152C15.5044 42.7428 15.7367 42.7384 15.9704 42.6241C16.0143 42.6056 16.0583 42.5871 16.1023 42.5687C16.1869 42.5792 16.2715 42.5896 16.3561 42.6001C16.4316 42.7046 16.5073 42.7044 16.5831 42.6004C16.871 42.599 17.1589 42.5975 17.4466 42.5959C17.6363 42.7459 17.8298 42.7352 18.0259 42.6088C18.5196 42.6105 19.0133 42.6123 19.5069 42.614C19.8176 42.7462 20.1283 42.7463 20.439 42.6139C21.0854 42.7467 21.0535 42.2143 21.1901 41.847Z" fill="#F89109"/>
<path fill-rule="evenodd" clip-rule="evenodd" d="M16.8331 56.1062C15.9773 54.5949 16.3235 53.0909 16.8377 51.5759C17.2159 50.4615 17.3439 49.3032 17.3376 48.1281C17.3359 47.8065 17.3623 47.4849 17.3758 47.1633C17.6383 47.1578 17.9009 47.1523 18.1635 47.1468C18.2422 47.1603 18.321 47.1737 18.3998 47.187C18.5921 47.92 18.5098 48.6398 18.22 49.3229C17.8753 50.1355 17.6284 50.9719 17.4707 51.837C17.4318 52.0506 17.3883 52.2641 17.534 52.4698C17.8439 52.9073 18.098 53.3926 18.4534 53.7874C18.8773 54.2582 18.9499 54.7722 18.8319 55.3428C18.7948 55.522 18.767 55.6944 18.7766 55.8748C18.6962 55.8886 18.6157 55.9024 18.5353 55.9162C17.9464 55.7863 17.3946 55.9906 16.8331 56.1062Z" fill="#FFC300"/>
<path fill-rule="evenodd" clip-rule="evenodd" d="M27.6913 13.6875C27.7393 13.565 27.7873 13.4424 27.8353 13.3197C27.9112 13.3574 27.987 13.3952 28.0628 13.433C28.6405 14.1418 29.2129 14.8546 29.6765 15.6464C30.0731 16.3238 29.9482 16.7961 29.2741 17.1924C28.6449 17.5624 28.6411 17.5798 29.0666 18.1563C28.5625 18.1415 28.0582 18.1267 27.554 18.1119C27.8885 17.727 27.7679 17.4091 27.4397 17.083C27.1119 16.7575 27.0063 16.369 27.0828 15.8826C27.2024 15.123 27.5276 14.4293 27.6913 13.6875Z" fill="#FF0000"/>
<path fill-rule="evenodd" clip-rule="evenodd" d="M39.781 42.5692C38.698 42.569 37.615 42.5688 36.532 42.5687C36.5358 42.4053 36.4782 42.2694 36.3944 42.1254C35.9958 41.4404 36.0725 41.1138 36.6988 40.6794C36.9536 40.5028 37.246 40.3648 37.3766 40.0528L37.9226 39.981C38.1353 40.0164 38.348 40.0518 38.5607 40.0872C38.6795 40.1943 38.8267 40.144 38.961 40.1548C39.4922 40.1976 39.8055 40.4241 39.7801 41.014C39.7577 41.5314 39.779 42.0507 39.781 42.5692Z" fill="#C01B28"/>
<path fill-rule="evenodd" clip-rule="evenodd" d="M27.5535 18.1118C28.0578 18.1267 28.562 18.1415 29.0662 18.1562C29.1058 18.1518 29.1333 18.1682 29.1484 18.2051C29.1675 18.3286 29.1986 18.4345 29.3594 18.3466C29.9336 18.14 30.4569 18.3698 30.9401 18.6092C31.2487 18.762 31.224 19.0712 30.8682 19.2145C30.5749 19.3325 30.2592 19.3945 29.9532 19.4815C28.8859 19.6453 27.8098 19.5844 26.7373 19.6132C26.6633 19.5949 26.5893 19.5766 26.5152 19.5584C26.4062 19.0973 26.1199 18.6048 26.742 18.2727C26.742 18.2727 26.7865 18.2576 26.786 18.2577C27.065 18.3332 27.295 18.1472 27.5535 18.1118Z" fill="#C01B28"/>
<path fill-rule="evenodd" clip-rule="evenodd" d="M32.1871 6.25229C31.5661 6.54735 30.9057 6.78189 30.3356 7.15468C29.777 7.51988 29.0061 7.67462 28.7969 8.46262C28.5568 8.6236 28.3167 8.78458 28.0766 8.94573C28.094 8.07306 27.784 7.19987 28.0793 6.32729C29.1984 6.168 30.3053 5.85944 31.4529 6.05059C31.7043 6.09247 31.9767 6.06001 32.1871 6.25229Z" fill="#FF0000"/>
<path fill-rule="evenodd" clip-rule="evenodd" d="M17.4475 42.5964C17.1596 42.5979 16.8717 42.5993 16.584 42.6005C16.5084 42.6003 16.4326 42.6003 16.3569 42.6004C16.2722 42.59 16.1876 42.5795 16.103 42.569C16.1043 42.1059 16.1051 41.6429 16.1069 41.1799C16.1098 40.4083 16.2209 40.2751 16.9641 40.1429C17.1618 40.1077 17.3585 40.0676 17.5557 40.0297C17.658 40.0196 17.7602 40.0095 17.8627 39.9995C18.203 40.0165 18.5432 40.0335 18.8834 40.0504C18.8319 40.1099 18.7891 40.1811 18.7275 40.2271C17.4677 41.168 17.4673 41.1674 17.9163 42.571C17.76 42.5795 17.6038 42.588 17.4475 42.5964Z" fill="#EC4233"/>
<path fill-rule="evenodd" clip-rule="evenodd" d="M37.9563 37.0173C38.1632 37.2577 38.37 37.4981 38.5769 37.7385C38.5919 37.8378 38.6233 37.927 38.7215 37.9754C38.7536 38.0228 38.7858 38.0702 38.818 38.1175C38.8399 38.191 38.8618 38.2644 38.8837 38.3379C38.9204 38.975 38.4718 39.2181 37.9931 39.4367C37.8049 39.5442 37.8502 39.6943 37.9179 39.8485C37.9175 39.8906 37.9171 39.9327 37.9168 39.9749C37.8459 39.9399 37.7354 39.9229 37.7101 39.8672C37.2761 38.9116 36.4819 38.0679 36.7645 36.8851C36.7645 36.8851 36.7642 36.8887 36.7642 36.8886C36.97 36.6837 37.1759 36.4788 37.3818 36.2738C37.42 36.3195 37.4582 36.3651 37.4964 36.4106C37.4962 36.5153 37.5158 36.6048 37.6479 36.6077C37.6479 36.6077 37.6598 36.6222 37.6595 36.6223C37.6227 36.8562 37.5806 37.0941 37.9563 37.0173Z" fill="#F79507"/>
<path fill-rule="evenodd" clip-rule="evenodd" d="M27.554 18.1126C27.2954 18.148 27.0654 18.3339 26.7864 18.2585C27.2104 17.7393 27.1212 17.3994 26.4916 17.1045C26.0052 16.8767 25.8012 16.3866 26.0731 15.89C26.5118 15.0888 26.9993 14.3089 27.6914 13.6878C27.5276 14.4299 27.2024 15.1236 27.0829 15.8832C27.0063 16.3696 27.112 16.7581 27.4397 17.0837C27.7679 17.4098 27.8885 17.7277 27.554 18.1126Z" fill="#F89109"/>
<path fill-rule="evenodd" clip-rule="evenodd" d="M38.557 47.0841C38.01 47.2426 37.4459 47.1238 36.8928 47.1861C36.8051 47.0494 36.6631 47.0675 36.5306 47.0587C36.6378 46.6867 36.2596 46.4432 36.2759 46.0952C36.8748 45.9026 37.4858 45.9154 38.0919 46.0268C38.5018 46.102 38.9093 46.1176 39.3215 46.1062C39.796 46.7839 39.758 46.8327 38.557 47.0841Z" fill="#EC4233"/>
<path fill-rule="evenodd" clip-rule="evenodd" d="M39.1646 57.0693C38.4046 56.9655 37.6484 57.1384 36.8892 57.1003C36.8893 57.1002 36.8883 57.0774 36.8883 57.0774C36.9095 56.6977 37.3976 56.2153 36.6528 56.0038C36.8913 55.9595 37.1297 55.9154 37.3681 55.8712C37.9324 55.8813 38.482 55.996 39.032 56.1053C39.1267 56.1348 39.2249 56.1566 39.316 56.1952C39.7506 56.3793 39.8088 56.5923 39.3483 56.8191C39.2342 56.8753 39.1221 56.9086 39.1646 57.0693Z" fill="#EC4233"/>
<path fill-rule="evenodd" clip-rule="evenodd" d="M18.1656 57.0964C17.6473 57.1078 17.1303 56.9389 16.6112 57.0852C16.6169 57.0268 16.6503 56.9449 16.6239 56.9135C16.1579 56.359 16.1563 56.3604 16.8329 56.1062C17.3946 55.9904 17.9464 55.7862 18.5353 55.9157C18.4474 56.3015 18.3597 56.6878 18.2719 57.0741C18.236 57.0791 18.2006 57.0865 18.1656 57.0964Z" fill="#F66056"/>
<path fill-rule="evenodd" clip-rule="evenodd" d="M26.7434 18.2734C26.1214 18.6055 26.4077 19.098 26.5167 19.5591C26.3118 19.5343 26.107 19.5096 25.9022 19.485C25.5765 19.3849 25.2365 19.3162 24.9286 19.1766C24.5632 19.011 24.5365 18.7714 24.9291 18.5923C25.5035 18.3304 26.1062 18.1943 26.7434 18.2734Z" fill="#EC4233"/>
<path fill-rule="evenodd" clip-rule="evenodd" d="M28.0791 6.32732C27.7837 7.19987 28.0937 8.07309 28.0763 8.94574C28.0719 10.4415 28.0674 11.9375 28.063 13.4335C27.9871 13.3957 27.9113 13.3579 27.8355 13.3203C27.8289 11.0489 27.8205 8.77748 27.8197 6.50604C27.8196 6.36346 27.7168 5.98155 28.0791 6.32732Z" fill="#C01B28"/>
<path fill-rule="evenodd" clip-rule="evenodd" d="M18.1635 47.1467C17.9009 47.1522 17.6383 47.1577 17.3758 47.1632C17.2666 47.123 17.16 47.0715 17.0476 47.0444C16.2114 46.8423 16.1753 46.7841 16.4738 46.0812C16.51 46.0682 16.5471 46.0588 16.5852 46.0531C16.9491 46.0666 17.313 46.0798 17.6769 46.0931C17.6943 46.5113 18.0346 46.7801 18.1635 47.1467Z" fill="#F66056"/>
<path fill-rule="evenodd" clip-rule="evenodd" d="M15.0275 42.645C15.0295 43.0541 15.3397 42.9312 15.5522 42.9322C17.1357 42.9402 18.7194 42.9348 20.3029 42.9419C20.5157 42.9429 20.7473 42.8709 20.9372 43.0398C18.965 43.0488 16.9928 43.0577 15.0206 43.0667C14.9405 43.0562 14.8604 43.0457 14.7804 43.0351C14.6091 42.744 14.762 42.6588 15.0275 42.645Z" fill="#FC8C2C"/>
<path fill-rule="evenodd" clip-rule="evenodd" d="M32.8306 8.73186C33.5761 8.79132 34.3216 8.85075 35.0671 8.91021C34.3048 9.06197 33.5515 9.09934 32.8306 8.73186Z" fill="#DA4739"/>
<path fill-rule="evenodd" clip-rule="evenodd" d="M15.9713 42.6384C15.7376 42.7851 15.5054 42.7908 15.2749 42.6269C15.5079 42.552 15.74 42.5579 15.9713 42.6384Z" fill="#FC8C2C"/>
<path fill-rule="evenodd" clip-rule="evenodd" d="M29.3597 18.3485C29.1987 18.4364 29.1676 18.3304 29.1484 18.2069C29.2575 18.1966 29.3599 18.1961 29.3597 18.3485Z" fill="#EC4233"/>
<path fill-rule="evenodd" clip-rule="evenodd" d="M16.5847 46.0868C16.5467 46.0943 16.5095 46.1066 16.4733 46.1237C16.4277 46.0757 16.3821 46.0278 16.3364 45.9798C16.3364 45.9798 16.3609 45.9485 16.3608 45.9486C16.4354 45.9947 16.5101 46.0407 16.5847 46.0868Z" fill="#C01B28"/>
<path fill-rule="evenodd" clip-rule="evenodd" d="M16.3434 45.9718C16.2199 45.942 16.1976 45.8502 16.1938 45.7471C16.1938 45.7471 16.2384 45.7129 16.2384 45.7129C16.2819 45.7912 16.3254 45.8696 16.3689 45.9479L16.3434 45.9718Z" fill="#C01B28"/>
<path fill-rule="evenodd" clip-rule="evenodd" d="M38.8967 38.1494C38.8384 38.091 38.78 38.0327 38.7217 37.9743C38.78 38.0327 38.8384 38.091 38.8967 38.1494Z" fill="#F5F3EE"/>
<path fill-rule="evenodd" clip-rule="evenodd" d="M18.1628 47.146C18.0339 46.7794 17.6937 46.5106 17.6763 46.0923C17.6781 46.0507 17.6798 46.0093 17.6816 45.9679C18.5653 45.9035 19.4399 46.0476 20.3191 46.0777C21.029 46.1019 21.1513 45.9348 21.1843 45.2479C21.2108 44.6957 20.9238 43.9874 21.3225 43.6336C21.679 43.3173 22.3631 43.542 22.9018 43.5413C26.8384 43.5361 30.7749 43.5412 34.7115 43.5431C34.7129 44.086 34.7343 44.6298 34.7091 45.1715C34.6886 45.6144 34.8285 45.9525 35.1985 46.1945C34.7688 46.5896 34.7916 46.6656 35.2958 46.9631C35.5028 47.0852 35.7817 46.9459 35.9362 47.1823C35.9015 48.3112 36.0534 49.4532 35.6999 50.5597C35.4325 50.8334 35.4259 51.1758 35.4459 51.5252L35.4459 51.5262C35.0059 52.0968 34.9279 52.7602 34.9535 53.4502C34.9349 54.3334 34.8976 55.2204 35.4589 55.9879C34.7465 56.432 34.736 56.4704 35.1957 56.9511C35.1509 57.1546 34.9204 57.1756 34.8247 57.3291C34.7895 57.3674 34.7542 57.4057 34.7189 57.4439C34.7189 57.4439 34.7105 57.4457 34.7106 57.4458C34.6719 57.4454 34.634 57.4505 34.5968 57.4611C34.5106 57.4639 34.4243 57.4666 34.3382 57.4692C33.4227 57.3747 32.4945 57.5808 31.5843 57.3542C31.5843 57.3542 31.5581 57.3089 31.5582 57.3091C31.6407 56.7485 31.8014 56.1831 31.462 55.6467C30.9272 54.9001 30.8414 54.1822 31.3916 53.3589C31.6349 52.9948 31.383 52.4853 31.117 52.1243C30.8598 51.7751 30.7811 51.4514 30.8979 51.0201C31.1021 50.2654 30.8441 49.6225 30.218 49.1684C29.3159 48.5141 28.3857 47.8987 27.7022 46.9922C27.505 46.7307 27.3239 46.8509 27.1669 47.0458C26.8026 47.498 26.4234 47.9333 25.9447 48.2724C25.4747 48.6053 25.0067 48.9414 24.5464 49.2875C24.0469 49.6632 23.8473 50.1996 24.002 50.7766C24.173 51.4144 24.0366 51.9161 23.6086 52.3764C23.4919 52.3005 23.3465 52.2483 23.2632 52.1455C22.2797 50.9317 21.3007 49.7142 20.3346 48.4865C20.2067 48.3239 20.0778 48.2488 19.8848 48.2547C19.8861 48.0377 19.8585 47.8157 19.8947 47.6047C19.9667 47.1849 19.8226 47.0627 19.4078 47.1331C19.0781 47.1891 18.7358 47.1713 18.3991 47.1863C18.3203 47.1728 18.2416 47.1594 18.1628 47.146Z" fill="#C50000"/>
<path fill-rule="evenodd" clip-rule="evenodd" d="M29.9197 57.449C29.827 57.4543 29.7344 57.4597 29.6418 57.4649C28.9191 57.3601 28.1752 57.5872 27.4626 57.3248C27.1322 56.6068 26.4916 56.1281 26.0502 55.4939C25.7714 55.0934 25.5078 54.6648 25.0512 54.4247C25.0199 54.4197 24.9885 54.4155 24.9569 54.4122C24.9446 53.9356 24.9322 53.459 24.9199 52.9824C24.9732 51.7512 25.502 50.7612 26.414 49.9469C26.769 49.6299 27.0737 49.2564 27.4013 48.9087C27.7227 49.2579 28.0483 49.6033 28.3647 49.957C28.9193 50.5771 29.576 51.1162 29.8144 51.976C29.9188 52.3525 29.8399 52.7377 29.9536 53.1041C29.8571 54.5516 29.921 56.0006 29.9197 57.449Z" fill="#C01B28"/>
<path fill-rule="evenodd" clip-rule="evenodd" d="M19.8862 48.2563C20.0792 48.2505 20.2081 48.3255 20.336 48.4881C21.3021 49.7158 22.2811 50.9334 23.2646 52.1472C23.3479 52.2499 23.4934 52.3022 23.61 52.378C23.6111 52.4548 23.612 52.5314 23.6128 52.6082C23.2931 53.189 23.5694 53.6768 23.8733 54.1455C24.045 54.4104 24.0816 54.5939 23.85 54.8732C23.5055 55.2885 23.2804 55.7843 23.3481 56.3585C23.2434 56.4374 23.2333 56.517 23.3464 56.5974C23.3488 56.7213 23.3511 56.8452 23.3534 56.9691C23.2331 57.1661 23.1128 57.3631 22.9926 57.5601C22.513 57.5578 22.0335 57.5555 21.5539 57.5534C21.4532 57.3652 21.2882 57.3173 21.0902 57.3405C20.892 57.2252 20.7178 57.0569 20.4664 57.0614C21.0178 56.4411 21.0178 56.4411 20.4439 55.9969C20.4619 55.899 20.4499 55.7795 20.5024 55.7064C21.0503 54.9428 21.0116 54.1037 20.8236 53.2496C20.6457 52.4408 20.414 51.6479 20.1747 50.854C19.9274 50.0337 19.9703 49.1259 19.8862 48.2563Z" fill="#FF0000"/>
<path fill-rule="evenodd" clip-rule="evenodd" d="M23.3528 56.9678C23.3505 56.8439 23.3481 56.7199 23.346 56.5961C23.3465 56.5165 23.347 56.4369 23.3475 56.3571C23.2798 55.783 23.5049 55.2872 23.8494 54.8719C24.081 54.5926 24.0444 54.4091 23.8727 54.1441C23.5688 53.6755 23.2925 53.1877 23.6122 52.6069C24.0453 52.9598 24.2653 53.5131 24.7588 53.8243C24.9149 53.5619 24.6814 53.2243 24.9195 52.9831C24.9318 53.4598 24.9441 53.9364 24.9563 54.413C24.9542 55.4598 24.9522 56.5066 24.9502 57.5533C24.4356 57.3106 23.8816 57.6883 23.3665 57.4527C23.3618 57.291 23.3573 57.1294 23.3528 56.9678Z" fill="#FFC300"/>
<path fill-rule="evenodd" clip-rule="evenodd" d="M24.9507 57.5533C24.9527 56.5066 24.9547 55.4598 24.9568 54.413C24.9884 54.4163 25.0199 54.4205 25.0512 54.4255C25.0509 55.2112 25.0751 55.998 25.0418 56.7824C25.0197 57.3045 25.2629 57.4778 25.7265 57.4435C26.305 57.4008 26.8773 57.2698 27.4626 57.3257C28.1752 57.588 28.9191 57.3609 29.6417 57.4657C29.4315 57.6397 29.182 57.558 28.9514 57.5589C27.6179 57.5641 26.2843 57.5565 24.9507 57.5533Z" fill="#EE472B"/>
<path fill-rule="evenodd" clip-rule="evenodd" d="M29.919 57.4498C29.9203 56.0014 29.8563 54.5524 29.9529 53.1049C30.315 53.5071 30.1812 54.0422 30.1607 54.4615C30.1163 55.3657 30.1675 56.2685 30.1158 57.1698C30.1094 57.281 30.2545 57.5506 29.919 57.4498Z" fill="#FC8C2C"/>
<path fill-rule="evenodd" clip-rule="evenodd" d="M31.4633 55.648C31.8026 56.1843 31.642 56.7497 31.5595 57.3103C31.3427 56.7668 31.4991 56.2018 31.4633 55.648Z" fill="#FC8C2C"/>
<path fill-rule="evenodd" clip-rule="evenodd" d="M35.1998 46.196C34.8298 45.9539 34.6899 45.6158 34.7105 45.1729C34.7356 44.6313 34.7142 44.0874 34.7128 43.5445C35.2734 43.5436 35.8342 43.5507 36.3946 43.5387C36.7372 43.5314 36.8746 43.5423 36.7549 43.9965C36.5677 44.707 36.0155 45.2872 36.05 46.0648C35.7665 46.1086 35.4832 46.1523 35.1998 46.196Z" fill="#DD2A16"/>
<path fill-rule="evenodd" clip-rule="evenodd" d="M17.6822 45.9696C17.6805 46.0111 17.6787 46.0525 17.6769 46.0941C17.313 46.0809 16.9491 46.0676 16.5852 46.0542C16.5106 46.0189 16.436 45.9837 16.3614 45.9485C16.3198 45.8702 16.2782 45.7919 16.2365 45.7137C16.234 45.19 16.2315 44.6663 16.229 44.1426C16.227 43.7288 16.3906 43.4921 16.8461 43.5387C17.0253 43.5571 17.2086 43.5329 17.3891 43.5437C17.6543 43.5596 18.0394 43.4317 18.088 43.8163C18.13 44.1482 18.1565 44.5024 17.7588 44.7871C17.3612 45.0717 17.515 45.5586 17.6822 45.9696Z" fill="#DD2A16"/>
<path fill-rule="evenodd" clip-rule="evenodd" d="M15.02 43.0666C16.9922 43.0576 18.9644 43.0487 20.9366 43.0397C21.1014 43.0405 21.2663 43.0414 21.431 43.0425C27.9472 43.0452 34.4635 43.0479 40.9798 43.0506C40.7885 43.2797 40.528 43.1723 40.3014 43.1725C32.2164 43.1787 24.1313 43.1817 16.0464 43.1655C15.711 43.1648 15.3285 43.4135 15.02 43.0666Z" fill="#DD2A16"/>
<path fill-rule="evenodd" clip-rule="evenodd" d="M40.9799 43.1052C34.4636 43.1013 27.9474 43.0974 21.4312 43.0933C21.5774 42.8642 21.7693 42.9436 21.9439 42.9436C28.3012 42.9417 34.6585 42.9441 41.0159 42.9458C41.0073 43.0006 40.9952 43.0537 40.9799 43.1052Z" fill="#FC8C2C"/>
<path fill-rule="evenodd" clip-rule="evenodd" d="M35.1995 46.1958C35.4828 46.1522 35.7662 46.1085 36.0496 46.0647C36.1253 46.0745 36.201 46.0844 36.2765 46.0945C36.2601 46.4426 36.6383 46.6861 36.5311 47.0581C36.3618 47.236 36.1329 47.1311 35.9371 47.1836C35.7827 46.9472 35.5037 47.0865 35.2967 46.9644C34.7926 46.6669 34.7698 46.5909 35.1995 46.1958Z" fill="#FA5E53"/>
<path fill-rule="evenodd" clip-rule="evenodd" d="M34.9408 35.0797C34.8256 35.0788 34.7104 35.0779 34.5952 35.077C34.7616 34.6365 34.6997 34.1738 34.7266 33.7195C34.8851 34.159 34.9872 34.6076 34.9408 35.0797Z" fill="#FC8C2C"/>
<path fill-rule="evenodd" clip-rule="evenodd" d="M34.6108 32.7561C34.8477 33.0268 34.716 33.3389 34.7584 33.6315C34.4558 33.3683 34.6453 33.0496 34.6108 32.7561Z" fill="#FC8C2C"/>
<path fill-rule="evenodd" clip-rule="evenodd" d="M37.9158 39.9754C37.9158 39.9754 37.9214 39.9814 37.9218 39.9817C37.7402 40.0059 37.5582 40.0299 37.3762 40.0537C37.0552 40.0474 36.7342 40.0412 36.4132 40.0351C36.6289 39.6804 36.6243 39.4107 36.1593 39.2693C35.9949 39.2193 35.853 39.0957 35.7008 39.0057C35.6274 38.1863 36.1075 37.2286 36.7635 36.8857C36.4809 38.0685 37.2751 38.9121 37.7091 39.8678C37.7344 39.9235 37.8449 39.9405 37.9158 39.9754Z" fill="#FFC300"/>
<path fill-rule="evenodd" clip-rule="evenodd" d="M35.7013 39.0041C35.8535 39.0941 35.9955 39.2177 36.1598 39.2677C36.6248 39.4091 36.6295 39.6788 36.4137 40.0335C36.0654 39.9304 35.6461 40.4268 35.3474 39.9068C35.3367 39.7049 35.3261 39.5029 35.3154 39.301C35.3314 39.2644 35.3499 39.229 35.3709 39.195C35.515 39.1902 35.6519 39.1729 35.7013 39.0041Z" fill="#C01B28"/>
<path fill-rule="evenodd" clip-rule="evenodd" d="M37.3812 36.2737C37.1753 36.4786 36.9694 36.6835 36.7636 36.8884C36.7059 36.6654 36.9015 36.5065 36.9125 36.3012C37.0764 36.4215 37.1963 35.8003 37.3812 36.2737Z" fill="#FBAE34"/>
<path fill-rule="evenodd" clip-rule="evenodd" d="M24.8083 23.9439C24.6591 26.1517 24.8223 28.386 24.2137 30.5553C24.0563 31.1164 23.8806 31.6689 23.6276 32.1886C23.4754 32.5013 23.3688 32.8119 23.3358 33.1528C23.072 33.1798 23.0392 33.3936 23.0064 33.5874C22.9501 33.9203 22.9147 34.2567 22.8705 34.5916C22.5491 34.6722 22.2277 34.7528 21.9062 34.8334C21.9707 32.6881 22.4159 30.6073 22.9763 28.5468C23.1691 27.8378 23.2666 27.1067 23.5781 26.4246C23.9148 25.687 24.1779 24.9157 24.4751 24.16C24.5334 24.0116 24.659 23.9569 24.8083 23.9439Z" fill="#F99204"/>
<path fill-rule="evenodd" clip-rule="evenodd" d="M23.3453 38.5676C23.5774 39.3856 24.1675 40.024 24.4669 40.8092C24.5959 41.1474 24.7369 41.4783 24.669 41.8526C23.5418 41.8292 22.4057 41.9299 21.3006 41.6057C21.1896 40.024 21.4113 38.4596 21.5459 36.8907C21.7858 36.8638 22.0531 36.8858 22.2147 37.0326C22.4736 37.2678 22.6569 37.0686 22.8716 37.0122C22.8831 37.1446 22.8491 37.2943 23.0083 37.3702C23.0094 37.4487 23.0105 37.5272 23.0114 37.6057C23.0763 37.9425 22.7492 38.4157 23.3453 38.5676Z" fill="#F99204"/>
<path fill-rule="evenodd" clip-rule="evenodd" d="M17.9169 42.57C17.4679 41.1664 17.4683 41.1669 18.728 40.226C18.7896 40.18 18.8324 40.1089 18.8841 40.0493C18.9321 40.0409 18.98 40.0327 19.0279 40.0244C19.5079 40.0632 19.9878 40.1019 20.4678 40.1406C20.9919 40.2945 21.1717 40.6747 21.1653 41.1863C21.1625 41.4062 21.1819 41.6264 21.1913 41.8463C21.0548 42.2136 21.0867 42.746 20.4405 42.613C20.1298 42.613 19.819 42.6132 19.5082 42.6133C19.0146 42.6116 18.5209 42.6098 18.0273 42.6079C17.9928 42.5886 17.956 42.576 17.9169 42.57Z" fill="#C01B28"/>
<path fill-rule="evenodd" clip-rule="evenodd" d="M20.4675 40.1404C19.9875 40.1016 19.5075 40.0629 19.0273 40.0242C19.021 39.9922 19.0203 39.96 19.0251 39.9278C19.4031 39.7967 19.3986 39.3248 19.7745 39.1441C20.2927 38.8949 20.3436 38.4142 19.9904 37.9339C19.7791 37.6465 19.5101 37.3944 19.4712 37.0108L19.4994 37.01C19.8937 36.9535 20.2876 37.222 20.6821 37.012C20.7207 38.0624 20.4701 39.0929 20.4675 40.1404Z" fill="#FA5E53"/>
<path fill-rule="evenodd" clip-rule="evenodd" d="M22.5211 35.053C22.4628 35.039 22.4044 35.0249 22.3461 35.011C22.3732 35.0731 22.3991 35.1788 22.4279 35.1857C22.4575 35.1926 22.4899 35.1029 22.5211 35.053ZM22.8721 37.0105C22.6574 37.0668 22.4741 37.266 22.2152 37.0308C22.0536 36.884 21.7863 36.862 21.5464 36.8889C21.7066 36.2106 21.6332 35.4914 21.9059 34.8328C22.2273 34.7521 22.5488 34.6716 22.8702 34.5909C22.8701 34.9535 22.8699 35.3161 22.8697 35.6787C22.6799 35.5592 22.8104 35.3344 22.71 35.1841C21.9238 35.956 21.9416 36.1124 22.8602 36.5244C22.8642 36.6865 22.8681 36.8485 22.8721 37.0105Z" fill="#F89109"/>
<path fill-rule="evenodd" clip-rule="evenodd" d="M18.7642 36.2983C18.8433 36.2939 18.9224 36.2895 19.0015 36.2852C19.1674 36.5265 19.3333 36.7679 19.4992 37.0092C19.4993 37.0092 19.4712 37.01 19.4714 37.01C18.9858 37.0217 18.9151 36.62 18.7642 36.2983Z" fill="#FC8C2C"/>
<path fill-rule="evenodd" clip-rule="evenodd" d="M35.9369 47.183C36.1326 47.1305 36.3616 47.2354 36.5309 47.0575C36.6634 47.0664 36.8054 47.0483 36.8932 47.185C37.3409 48.1894 36.8394 49.0866 36.548 49.9953C36.4195 50.396 36.2346 50.7916 36.1924 51.2031C36.1191 51.918 36.0947 52.6082 36.6739 53.2282C37.3497 53.9517 37.7241 54.8362 37.3683 55.8708C37.1298 55.9149 36.8914 55.9591 36.6529 56.0032C36.2551 55.9983 35.8574 55.9935 35.4597 55.9886C34.8984 55.2211 34.9357 54.3341 34.9543 53.4509C35.1496 52.8176 35.3498 52.1856 35.4466 51.527C35.4466 51.527 35.4466 51.5259 35.4466 51.5259C35.6632 51.2389 35.6905 50.9019 35.7006 50.5605C36.0542 49.4539 35.9023 48.3119 35.9369 47.183Z" fill="#FFC300"/>
<path fill-rule="evenodd" clip-rule="evenodd" d="M28.4343 41.4875C29.7866 41.4309 31.0652 41.034 32.3358 40.6175C33.0911 40.37 33.8283 40.0671 34.5739 39.7892C34.5909 40.1482 34.6078 40.5071 34.6247 40.866C34.6558 41.4313 34.6869 41.9965 34.718 42.5618C31.545 42.5694 28.3721 42.5757 25.1992 42.586C24.6007 42.5879 24.7123 42.213 24.7921 41.8482C26.0189 41.8586 27.2385 41.7945 28.4342 41.4884C28.4342 41.4883 28.4343 41.4875 28.4343 41.4875Z" fill="#C01B28"/>
<path fill-rule="evenodd" clip-rule="evenodd" d="M34.7185 42.5624C34.6874 41.9971 34.6563 41.4319 34.625 40.8667C34.9132 40.5829 35.2124 40.3072 35.3475 39.9076C35.6463 40.4276 36.0656 39.9312 36.4138 40.0342C36.7349 40.0404 37.0559 40.0466 37.3769 40.0529C37.2463 40.365 36.9539 40.5029 36.6992 40.6796C36.0728 41.1139 35.9961 41.4405 36.3947 42.1256C36.4785 42.2695 36.5361 42.4054 36.5323 42.5689C35.9277 42.5667 35.3231 42.5645 34.7185 42.5624Z" fill="#EF412B"/>
<path fill-rule="evenodd" clip-rule="evenodd" d="M19.5083 42.6134C19.8191 42.6132 20.1299 42.6129 20.4405 42.613C20.1297 42.8463 19.819 42.846 19.5083 42.6134Z" fill="#FC8C2C"/>
<path fill-rule="evenodd" clip-rule="evenodd" d="M17.9164 42.5698C17.9554 42.5776 17.9922 42.5938 18.0266 42.6188C17.8308 42.7821 17.6376 42.7959 17.4482 42.6024C17.6044 42.5917 17.7604 42.5807 17.9164 42.5698Z" fill="#FC8C2C"/>
<path fill-rule="evenodd" clip-rule="evenodd" d="M16.3569 42.5994C16.4327 42.5993 16.5085 42.5992 16.5842 42.5997C16.5082 42.8325 16.4325 42.8329 16.3569 42.5994Z" fill="#FC8C2C"/>
<path fill-rule="evenodd" clip-rule="evenodd" d="M19.8857 48.2546C19.9697 49.1241 19.9268 50.032 20.1741 50.8522C20.4135 51.6462 20.6451 52.4391 20.8231 53.2478C21.011 54.102 21.0498 54.941 20.5018 55.7047C20.4494 55.7778 20.4613 55.8972 20.4435 55.9951C19.8819 56.04 19.3297 55.9522 18.7768 55.8738C18.7672 55.6934 18.7951 55.521 18.8321 55.3418C18.9501 54.7712 18.8775 54.2573 18.4536 53.7865C18.0982 53.3916 17.8441 52.9063 17.5342 52.4688C17.3885 52.2631 17.432 52.0496 17.4709 51.836C17.6286 50.9709 17.8755 50.1345 18.2202 49.322C18.51 48.6389 18.5923 47.9191 18.4 47.186C18.7367 47.1712 19.079 47.189 19.4087 47.133C19.8235 47.0626 19.9676 47.1848 19.8956 47.6046C19.8594 47.8156 19.8869 48.0376 19.8857 48.2546Z" fill="#F99204"/>
<path fill-rule="evenodd" clip-rule="evenodd" d="M18.7766 55.8741C19.3295 55.9525 19.8817 56.0404 20.4434 55.9955C21.0171 56.4397 21.0171 56.4397 20.4656 57.0602C19.7344 57.0648 19.0032 57.0692 18.272 57.0736C18.3597 56.6873 18.4475 56.301 18.5353 55.9151C18.6158 55.9017 18.6962 55.8879 18.7766 55.8741Z" fill="#EF412B"/>
<path fill-rule="evenodd" clip-rule="evenodd" d="M37.9563 37.0158C37.5805 37.0927 37.6226 36.8547 37.6594 36.6207C37.8583 36.6774 37.8965 36.8548 37.9563 37.0158Z" fill="#FBAE34"/>
<path fill-rule="evenodd" clip-rule="evenodd" d="M37.6707 36.6077C37.518 36.6048 37.4954 36.5153 37.4956 36.4105C37.6103 36.4387 37.6669 36.5057 37.6707 36.6077Z" fill="#FBAE34"/>
<path fill-rule="evenodd" clip-rule="evenodd" d="M19.0252 39.9274C19.0204 39.9597 19.021 39.9918 19.0274 40.0238C18.9798 40.0321 18.9319 40.0403 18.8838 40.0487C18.5436 40.0318 18.2034 40.0149 17.863 39.9978C17.9395 39.7191 17.9932 39.4538 17.6398 39.3078C17.0889 39.0803 16.9505 38.6531 17.0816 38.1047C17.2938 37.8983 17.4638 37.6631 17.5715 37.3854C17.7761 37.3114 17.7555 37.007 17.9961 36.9697C18.1413 37.16 18.1588 37.3506 18.078 37.5866C18.0088 37.7884 17.9749 38.0438 18.13 38.2215C18.5662 38.7215 18.8343 39.3024 19.0252 39.9274Z" fill="#FFC300"/>
<path fill-rule="evenodd" clip-rule="evenodd" d="M38.0324 39.4355C37.9993 39.5727 37.9662 39.71 37.9336 39.8473C37.8457 39.6931 37.7866 39.5429 38.0324 39.4355Z" fill="#FBAE34"/>
<path fill-rule="evenodd" clip-rule="evenodd" d="M19.0252 39.927C18.8343 39.302 18.5662 38.7211 18.13 38.2211C17.9749 38.0433 18.0088 37.7879 18.078 37.5861C18.1588 37.3502 18.1413 37.1595 17.9961 36.9692C18.104 36.6905 18.2943 36.4723 18.5082 36.2715C18.59 36.2771 18.6718 36.2827 18.7535 36.2882C18.7535 36.2882 18.7643 36.2982 18.7643 36.2983C18.9152 36.62 18.9859 37.0217 19.4715 37.01C19.5102 37.3935 19.7792 37.6457 19.9905 37.9331C20.3437 38.4133 20.2928 38.8941 19.7746 39.1433C19.3987 39.324 19.4032 39.7959 19.0252 39.927Z" fill="#F79507"/>
<path fill-rule="evenodd" clip-rule="evenodd" d="M18.7543 36.2936C18.6725 36.288 18.5906 36.2823 18.5088 36.2766C18.5179 36.1943 18.5412 36.1101 18.6378 36.1192C18.7269 36.1276 18.7567 36.2061 18.7543 36.2936Z" fill="#FC8C2C"/>
<path fill-rule="evenodd" clip-rule="evenodd" d="M35.46 55.9882C35.8577 55.993 36.2554 55.9979 36.6532 56.0028C37.398 56.2144 36.9099 56.6968 36.8887 57.0765C36.3198 57.1022 35.7529 57.1011 35.1968 56.9515C34.7371 56.4707 34.7476 56.4323 35.46 55.9882Z" fill="#FA5E53"/>
<path fill-rule="evenodd" clip-rule="evenodd" d="M35.4464 51.5277C35.3496 52.1863 35.1493 52.8184 34.9541 53.4517C34.9284 52.7616 35.0065 52.0983 35.4464 51.5277Z" fill="#EE472B"/>
<path fill-rule="evenodd" clip-rule="evenodd" d="M35.7014 50.5598C35.6913 50.9012 35.6639 51.2381 35.4473 51.5252C35.4274 51.1758 35.4341 50.8334 35.7014 50.5598Z" fill="#EE472B"/>
<path fill-rule="evenodd" clip-rule="evenodd" d="M27.4627 57.327C26.8774 57.2712 26.3051 57.4021 25.7266 57.4449C25.263 57.4792 25.0198 57.3059 25.0419 56.7837C25.0752 55.9994 25.0511 55.2126 25.0513 54.4269C25.5079 54.667 25.7715 55.0956 26.0503 55.4961C26.4918 56.1303 27.1323 56.609 27.4627 57.327Z" fill="#FF0000"/>
<path fill-rule="evenodd" clip-rule="evenodd" d="M25.271 34.11C25.8147 32.4683 26.4027 30.848 27.1603 29.2855C27.4673 28.6523 27.5396 27.9044 27.7131 27.2073C27.7517 27.0522 27.7646 26.8242 27.9244 26.8168C28.1434 26.8068 28.1388 27.0499 28.1837 27.2191C28.4335 28.1614 28.7414 29.0783 29.096 29.9921C29.6374 31.3872 30.3279 32.7383 30.6018 34.2311C30.4006 34.2582 30.1728 34.1526 30.0055 34.3503C30.0055 34.3503 30.001 34.3546 30.001 34.3546C29.9217 34.4737 29.8423 34.5928 29.7629 34.712C29.6881 34.5941 29.6085 34.5804 29.5226 34.7008L29.2986 34.5882C29.1517 34.3651 28.9408 34.2174 28.7269 34.0631C28.19 33.6758 28.1939 33.422 28.7296 32.9955C29.0771 32.7188 29.3598 32.402 29.2666 31.9251C29.0837 30.9901 28.6278 30.1553 28.238 29.2994C28.1086 29.0154 27.9052 28.9738 27.7373 29.3172C27.4724 29.8592 27.2362 30.4108 27.0227 30.9761C26.6188 32.0462 26.6458 32.2418 27.4729 33.0266C27.615 33.5262 27.1726 33.7609 26.9824 34.1098L26.9817 34.1104C26.6007 34.097 26.3717 34.3508 26.1282 34.5874C25.9665 34.7445 25.7688 34.8399 25.5377 34.7719C25.2564 34.6891 25.2908 34.4473 25.2886 34.2287C25.2863 34.1886 25.2804 34.1491 25.271 34.11Z" fill="#F89109"/>
<path fill-rule="evenodd" clip-rule="evenodd" d="M31.0835 35.6978C31.0886 36.1382 31.0937 36.5788 31.0987 37.0193C31.0961 37.482 31.0923 37.9447 31.0911 38.4073C31.0879 39.6159 30.3328 40.6282 29.1577 40.9974C29.155 40.9177 29.1524 40.8379 29.1497 40.7581C29.6277 40.1843 30.0135 39.5602 30.119 38.8058C30.2835 37.629 29.681 36.8258 28.7996 36.1674C28.7487 35.8147 28.8183 35.5132 29.1568 35.326C29.1989 35.3206 29.2411 35.3152 29.2832 35.3098C29.4011 35.3084 29.5189 35.3069 29.6368 35.3055C29.6666 35.3218 29.6965 35.338 29.7263 35.3543C29.7342 35.2994 29.7421 35.2443 29.75 35.1894C29.7498 35.149 29.7525 35.1088 29.7582 35.0689C29.8399 35.0524 29.9473 35.3936 29.9971 35.0639C30.032 34.8323 30.0027 34.5909 30.002 34.3538C30.002 34.3538 30.0065 34.3495 30.0065 34.3495C30.1647 34.3568 30.3395 34.3463 30.3573 34.5688C30.3769 34.8137 30.5401 34.8408 30.7321 34.8343C30.8094 34.9962 30.8867 35.1582 30.964 35.3201C30.9682 35.4573 30.9436 35.6037 31.0835 35.6978Z" fill="#F89109"/>
<path fill-rule="evenodd" clip-rule="evenodd" d="M24.9122 36.8737C24.9136 36.7635 24.9149 36.6533 24.9164 36.543C24.9838 36.3793 25.1426 36.2199 24.939 36.0441C24.9406 35.9223 24.9422 35.8006 24.9436 35.6788C25.0808 35.5724 25.2472 35.2634 25.2932 35.7377C25.324 36.0553 25.3755 36.3709 25.4117 36.6881C25.4281 36.8319 25.4316 36.9768 25.6224 36.997C25.8266 37.0185 25.9423 36.8778 25.9598 36.7214C26.0168 36.2125 26.1339 35.6953 25.896 35.1969C25.8949 35.1552 25.8939 35.1135 25.8927 35.0718C26.0581 34.8526 26.2195 35.0252 26.3821 35.0767C26.4808 35.1438 26.5717 35.2288 26.6793 35.2752C27.4804 35.6215 27.4875 35.7004 26.8566 36.3139C26.101 37.0486 25.8069 37.898 26.0579 38.9784C26.2201 39.677 26.6711 40.1644 26.9945 40.7455C26.8696 40.9343 26.6732 40.8646 26.5009 40.8823C26.4212 40.879 26.3415 40.8756 26.2618 40.8723C25.6542 40.3193 24.9411 39.8449 24.8159 38.9319C25.0557 38.2557 24.8771 37.5597 24.9122 36.8737Z" fill="#F89109"/>
<path fill-rule="evenodd" clip-rule="evenodd" d="M35.3711 39.1962C35.2775 37.9835 35.1839 36.7709 35.0904 35.5582C35.0486 35.5562 34.8723 34.7892 34.8306 34.7871C34.1574 33.8869 34.4959 35.7741 34.9602 37.4964C34.9271 38.284 34.952 38.8118 35.3156 39.3023C35.3316 39.2656 35.3501 39.2302 35.3711 39.1962Z" fill="#F89109"/>
<path fill-rule="evenodd" clip-rule="evenodd" d="M34.2712 34.9445C34.3152 35.0055 34.3656 35.0638 34.4221 35.1196C34.3656 35.0638 34.3152 35.0055 34.2712 34.9445ZM34.5941 35.1933C34.4208 35.1843 34.3298 35.1131 34.281 35.0017C34.3298 35.113 34.4208 35.1843 34.5941 35.1932C34.5948 35.1538 34.5955 35.1144 34.596 35.0749C34.7623 34.6343 34.7004 34.1717 34.7273 33.7173C34.7372 33.6884 34.7372 33.6596 34.7277 33.6309C34.4808 33.3675 34.6353 33.0489 34.6072 32.7554C34.4492 30.6504 33.997 28.5986 33.466 26.5634C33.1725 25.4384 32.8514 24.3194 32.3814 23.2501C32.3272 23.1268 32.3282 22.9792 32.3035 22.8429C31.6397 21.6388 30.9831 20.4296 29.9539 19.4814C28.8869 19.645 27.8108 19.5842 26.7384 19.6129C26.5032 20.2127 26.1104 20.7177 25.7612 21.2494C25.416 21.7749 25.1805 22.3408 25.1694 22.982C25.5682 22.6215 25.9298 22.2051 26.3725 21.9106C27.8175 20.9493 29.4293 21.3586 30.5835 22.937C31.8971 24.7333 32.4889 26.822 33.0267 28.937C33.4305 30.5252 33.6458 32.1495 33.9904 33.7486V33.7487C33.9899 34.1131 33.9893 34.4776 33.9888 34.8421C33.9904 34.8735 33.9897 34.9048 33.9867 34.9361C34.1302 35.0296 34.1121 35.1746 34.1073 35.3153C34.1108 35.3526 34.1121 35.39 34.1114 35.4272C34.3066 35.9338 34.1292 36.4962 34.3459 36.9997C34.4014 36.7712 34.4568 36.5427 34.5123 36.3141C34.4568 36.5427 34.4014 36.7712 34.346 36.9999C34.4221 37.9295 34.4982 38.859 34.5744 39.7885C34.5915 40.1475 34.6084 40.5064 34.625 40.8654C34.9131 40.5816 35.2124 40.3059 35.3475 39.9063C35.3368 39.7044 35.3262 39.5025 35.3156 39.3006" fill="#F89109"/>
<path fill-rule="evenodd" clip-rule="evenodd" d="M26.8634 23.717C26.5297 23.3326 26.79 22.8843 26.7439 22.4688C26.7352 22.3902 26.9034 22.3993 26.9752 22.4985C26.9762 22.6773 26.9916 22.8575 26.9749 23.0345C26.9423 23.3807 27.1015 23.4767 27.4277 23.4758C27.7538 23.4749 27.8463 23.3288 27.8269 23.0394C27.8149 22.8613 27.8167 22.6823 27.8123 22.5037C28.1771 22.2452 28.5944 22.3576 28.9731 22.4018C29.2316 22.4319 29.0816 22.5719 28.9211 22.6185C28.877 22.5424 28.8325 22.5439 28.7874 22.6176L28.7311 22.6142C28.7311 22.6142 28.6748 22.6176 28.6747 22.6177C28.4667 22.6991 28.0795 22.2967 28.0542 22.9008C28.0327 23.4142 28.2574 23.513 28.6809 23.4674C28.798 23.4549 28.9173 23.4629 29.0355 23.4614C29.2885 23.8255 29.175 24.2407 29.1295 24.6155C29.0987 24.8693 28.9575 24.707 28.9112 24.5555C28.9133 24.4757 28.9191 24.3957 28.9167 24.316C28.9078 24.0328 29.0193 23.708 28.5172 23.6985C28.0523 23.6898 28.0361 23.9516 28.074 24.2708C28.1256 24.7057 27.9248 24.8397 27.5232 24.8053C27.2654 24.7832 27.0046 24.7973 26.7452 24.7952C26.7448 24.7194 26.7444 24.6437 26.7439 24.5677C26.9814 24.5642 27.2197 24.5476 27.4563 24.5605C27.8048 24.5795 27.8255 24.3679 27.829 24.103C27.8326 23.8342 27.7502 23.6885 27.457 23.709C27.2599 23.7227 27.0613 23.7151 26.8634 23.717Z" fill="#FFEE00"/>
<path fill-rule="evenodd" clip-rule="evenodd" d="M26.7443 24.7948C27.0037 24.7969 27.2645 24.7828 27.5222 24.8049C27.9239 24.8392 28.1247 24.7053 28.073 24.2704C28.0351 23.9512 28.0513 23.6894 28.5162 23.6981C29.0183 23.7075 28.9069 24.0324 28.9157 24.3156C28.9182 24.3953 28.9123 24.4753 28.9103 24.5551C28.6787 24.4027 28.458 24.4214 28.2598 24.611C27.873 24.981 27.0734 25.1328 26.6462 24.9102C26.6328 24.9032 26.6241 24.8871 26.6133 24.8753C26.6569 24.8484 26.7006 24.8216 26.7443 24.7948Z" fill="#EE472B"/>
<path fill-rule="evenodd" clip-rule="evenodd" d="M22.8687 35.6799C22.8689 35.3173 22.8691 34.9548 22.8692 34.5922C22.9134 34.2572 22.9488 33.9209 23.0051 33.588C23.0379 33.3942 23.0707 33.1804 23.3345 33.1533C23.3911 33.6531 22.9808 34.0775 23.1041 34.5878C22.9332 34.7747 22.9783 35.0126 23.0019 35.2182C23.0703 35.8132 23.1409 36.4062 23.1107 37.0065C22.9542 37.0929 23.189 37.2906 23.0077 37.3697C22.8486 37.2938 22.8826 37.144 22.8712 37.0117C22.8672 36.8497 22.8632 36.6877 22.8594 36.5257C22.8626 36.2438 22.8657 35.9619 22.8687 35.6799Z" fill="#FC8C2C"/>
<path fill-rule="evenodd" clip-rule="evenodd" d="M26.8631 23.7169C27.0611 23.7149 27.2596 23.7226 27.4567 23.7088C27.7499 23.6883 27.8323 23.834 27.8287 24.1028C27.8252 24.3677 27.8045 24.5794 27.456 24.5603C27.2194 24.5474 26.9812 24.564 26.7437 24.5675C27.0283 24.3185 27.0504 24.0324 26.8631 23.7169Z" fill="#EE472B"/>
<path fill-rule="evenodd" clip-rule="evenodd" d="M27.8108 22.5048C27.8152 22.6834 27.8134 22.8624 27.8253 23.0405C27.8448 23.3299 27.7523 23.4759 27.4262 23.4768C27.0999 23.4777 26.9408 23.3818 26.9734 23.0356C26.9901 22.8585 26.9747 22.6784 26.9737 22.4996C27.2509 22.7929 27.531 22.617 27.8108 22.5048Z" fill="#EE472B"/>
<path fill-rule="evenodd" clip-rule="evenodd" d="M29.035 23.4615C28.9168 23.463 28.7975 23.455 28.6804 23.4676C28.2568 23.5131 28.0321 23.4143 28.0537 22.9009C28.079 22.2968 28.4661 22.6992 28.6742 22.6178C28.6508 22.7244 28.5351 22.9327 28.6485 22.9221C29.1363 22.8767 28.9204 23.278 29.035 23.4615Z" fill="#EE472B"/>
<path fill-rule="evenodd" clip-rule="evenodd" d="M26.5005 40.8823C26.6728 40.8646 26.8692 40.9344 26.994 40.7456C27.7098 41.1783 28.4278 41.2404 29.1488 40.7577C29.1514 40.8374 29.1541 40.9172 29.1568 40.997C29.0011 41.191 28.7249 41.0838 28.5535 41.2387C27.8528 41.2141 27.1232 41.3568 26.5005 40.8823Z" fill="#FC8C2C"/>
<path fill-rule="evenodd" clip-rule="evenodd" d="M26.5014 40.8836C27.1241 41.3581 27.8537 41.2153 28.5544 41.2399C28.5147 41.3228 28.4749 41.4057 28.4352 41.4886C28.4352 41.4886 28.4351 41.4894 28.4351 41.4895C28.0708 41.3594 27.6909 41.3824 27.3133 41.3569C26.9147 41.33 26.4568 41.3705 26.2622 40.8737C26.342 40.877 26.4217 40.8803 26.5014 40.8836Z" fill="#EE472B"/>
<path fill-rule="evenodd" clip-rule="evenodd" d="M24.9117 36.8741C24.8765 37.5601 25.0553 38.2561 24.8153 38.9324C24.7864 38.2433 24.6823 37.5509 24.9117 36.8741Z" fill="#FC8C2C"/>
<path fill-rule="evenodd" clip-rule="evenodd" d="M30.752 34.7198C30.7418 34.7574 30.7349 34.7955 30.7314 34.8342C30.5395 34.8408 30.3763 34.8136 30.3567 34.5687C30.3388 34.3462 30.1641 34.3568 30.0059 34.3495C30.1732 34.1518 30.401 34.2574 30.6023 34.2303C30.7796 34.3544 30.6975 34.558 30.752 34.7198Z" fill="#FC8C2C"/>
<path fill-rule="evenodd" clip-rule="evenodd" d="M23.3457 38.5662C22.7496 38.4143 23.0766 37.9412 23.0118 37.6044C23.1439 37.9177 23.3488 38.2058 23.3457 38.5662Z" fill="#FC8C2C"/>
<path fill-rule="evenodd" clip-rule="evenodd" d="M25.0397 34.7368C25.002 34.7323 24.9647 34.7257 24.9277 34.7168C25.0068 34.4943 24.9574 34.1991 25.271 34.1095C25.2802 34.1485 25.2861 34.1879 25.2884 34.228C25.1069 34.3492 25.2336 34.6215 25.0397 34.7368Z" fill="#EE472B"/>
<path fill-rule="evenodd" clip-rule="evenodd" d="M24.7969 36.5217C24.7992 36.3494 24.8328 36.1864 24.939 36.0451C25.1427 36.221 24.9839 36.3804 24.9165 36.5442C24.8765 36.5368 24.8367 36.5293 24.7969 36.5217Z" fill="#FC8C2C"/>
<path fill-rule="evenodd" clip-rule="evenodd" d="M28.7866 22.7332C28.8456 22.5055 28.904 22.5007 28.9617 22.7361C28.9034 22.7351 28.845 22.7342 28.7866 22.7332Z" fill="#EE472B"/>
<path fill-rule="evenodd" clip-rule="evenodd" d="M33.0234 34.2846C33.0818 34.2262 33.1401 34.1678 33.1985 34.1095C33.1401 34.1679 33.0818 34.2263 33.0234 34.2846Z" fill="#DA4739"/>
<path fill-rule="evenodd" clip-rule="evenodd" d="M22.8704 35.6791C22.8674 35.9611 22.8643 36.243 22.8611 36.5249C21.9424 36.1129 21.9246 35.9565 22.7108 35.1845C22.8111 35.3348 22.6807 35.5596 22.8704 35.6791Z" fill="#F79507"/>
<path fill-rule="evenodd" clip-rule="evenodd" d="M22.5217 35.0545C22.4905 35.1031 22.4581 35.1929 22.4285 35.1859C22.3997 35.179 22.3738 35.0735 22.3467 35.0112C22.4051 35.0252 22.4634 35.0393 22.5217 35.0545Z" fill="#F79507"/>
<path fill-rule="evenodd" clip-rule="evenodd" d="M26.9827 34.11C26.8806 34.4934 26.3394 34.604 26.3825 35.0776C26.22 35.0261 26.0586 34.8535 25.8932 35.0727C25.7456 35.0953 25.4573 35.0429 25.4863 35.1865C25.563 35.5658 25.427 35.9859 25.6867 36.4303C25.8619 35.9715 25.6717 35.546 25.8965 35.1978C26.1344 35.6962 26.0173 36.2134 25.9603 36.7223C25.9427 36.8787 25.8271 37.0194 25.6228 36.9979C25.432 36.9777 25.4286 36.8328 25.4122 36.689C25.376 36.3718 25.3245 36.0562 25.2936 35.7386C25.2476 35.2643 25.0813 35.5732 24.9441 35.6797C24.9384 35.5611 24.9326 35.4425 24.9268 35.3238C25.0667 35.2246 25.0523 35.0803 25.0396 34.9365C25.04 34.8702 25.0403 34.8039 25.0405 34.7378C25.2347 34.6226 25.1078 34.3499 25.2897 34.2284C25.2918 34.447 25.2574 34.6887 25.5387 34.7716C25.7698 34.8396 25.9676 34.7442 26.1292 34.5871C26.3727 34.3504 26.6017 34.0966 26.9827 34.11Z" fill="#FC8C2C"/>
<path fill-rule="evenodd" clip-rule="evenodd" d="M27.4724 33.0253C27.8978 33.5488 27.7579 33.8579 26.9819 34.1085C27.1722 33.7595 27.6145 33.5249 27.4724 33.0253Z" fill="#FC8C2C"/>
<path fill-rule="evenodd" clip-rule="evenodd" d="M29.7568 35.069C29.7573 34.9948 29.7579 34.9206 29.7584 34.8463C29.7583 34.8034 29.7581 34.7606 29.758 34.7177L29.7627 34.7113C29.842 34.5922 29.9214 34.473 30.0007 34.3539C30.0014 34.591 30.0307 34.8324 29.9957 35.064C29.946 35.3937 29.8385 35.0525 29.7568 35.069Z" fill="#FC8C2C"/>
<path fill-rule="evenodd" clip-rule="evenodd" d="M29.647 34.8258C29.6056 34.7842 29.5643 34.7425 29.5229 34.7008C29.6089 34.5801 29.6886 34.5938 29.7635 34.7118C29.7635 34.7118 29.7588 34.7182 29.7588 34.7182C29.7216 34.754 29.6843 34.7899 29.647 34.8258Z" fill="#FC8C2C"/>
<path fill-rule="evenodd" clip-rule="evenodd" d="M29.6362 35.3124C29.6947 35.2713 29.7531 35.2303 29.8113 35.1891C29.7989 35.2474 29.7867 35.3059 29.7744 35.3642C29.7284 35.3469 29.6823 35.3296 29.6362 35.3124Z" fill="#FC8C2C"/>
<path fill-rule="evenodd" clip-rule="evenodd" d="M25.8956 35.1976C25.6708 35.5459 25.8609 35.9714 25.6858 36.4301C25.4261 35.9858 25.5621 35.5656 25.4854 35.1863C25.4564 35.0428 25.7447 35.0951 25.8923 35.0726C25.8934 35.1142 25.8945 35.1559 25.8956 35.1976Z" fill="#F79507"/>
<path fill-rule="evenodd" clip-rule="evenodd" d="M29.1303 24.6155C29.0995 24.8693 28.9583 24.707 28.912 24.5555C28.6805 24.4031 28.4598 24.4218 28.2615 24.6114C27.8747 24.9814 27.0752 25.1332 26.648 24.9106C26.6346 24.9036 26.6259 24.8875 26.615 24.8757C26.6587 24.8488 26.7024 24.822 26.746 24.7952C26.7456 24.7194 26.7452 24.6436 26.7448 24.5678C27.0294 24.3187 27.0515 24.0326 26.8642 23.717C26.5305 23.3326 26.7908 22.8843 26.7447 22.4688C26.736 22.3901 26.9042 22.3993 26.9759 22.4985C27.2532 22.7918 27.5333 22.6159 27.8131 22.5037C28.1779 22.2452 28.5952 22.3576 28.9739 22.4017C29.2324 22.4319 29.0825 22.5719 28.922 22.6185C28.8774 22.6182 28.8328 22.6179 28.7882 22.6176L28.7319 22.6142L28.6756 22.6176C28.6522 22.7242 28.5364 22.9325 28.6498 22.922C29.1377 22.8766 28.9217 23.2778 29.0364 23.4614C29.2893 23.8255 29.1758 24.2406 29.1303 24.6155ZM24.6901 35.7331C24.6948 35.7161 24.7006 35.6996 24.7055 35.683C24.7006 35.6996 24.6948 35.7161 24.6901 35.7331ZM24.4476 37.1426C24.5069 37.145 24.5665 37.0879 24.6226 36.9676C24.5665 37.0879 24.5069 37.145 24.4476 37.1426ZM24.3765 37.0253C24.4342 37.0784 24.4927 37.119 24.5515 37.1399C24.4927 37.119 24.4342 37.0784 24.3765 37.0253ZM24.2566 36.9014C24.3102 36.9819 24.3696 37.0405 24.4317 37.0764C24.3696 37.0405 24.3102 36.9819 24.2566 36.9014ZM24.49 35.1504C24.43 35.2072 24.3716 35.2657 24.3149 35.3254C24.3716 35.2657 24.43 35.2072 24.49 35.1504ZM24.6649 35.9141C24.6679 35.8831 24.671 35.8521 24.6742 35.8213C24.671 35.8521 24.6679 35.8831 24.6649 35.9141ZM24.655 36.0192C24.6603 35.9607 24.6661 35.9024 24.6722 35.8441C24.6661 35.9024 24.6603 35.9607 24.655 36.0192ZM24.427 34.9946C24.4909 34.8892 24.5623 34.8068 24.6393 34.7585C24.6503 34.7516 24.6622 34.7462 24.6748 34.7419C24.6622 34.7463 24.6503 34.7516 24.6393 34.7585C24.5623 34.8068 24.4909 34.8892 24.427 34.9946C24.4096 35.0234 24.3927 35.0539 24.3765 35.0858C24.3927 35.0539 24.4096 35.0234 24.427 34.9946ZM23.7795 36.1989C23.7758 36.2857 23.7465 36.3713 23.6908 36.4532C23.6671 36.4884 23.6385 36.5229 23.6049 36.5565C23.6385 36.5229 23.6671 36.4884 23.6908 36.4532C23.7465 36.3713 23.7758 36.2857 23.7795 36.1989C23.78 36.1865 23.78 36.1741 23.7795 36.1617C23.78 36.1741 23.78 36.1865 23.7795 36.1989ZM23.611 36.9142C23.6366 36.857 23.6607 36.7983 23.6846 36.7391C23.6607 36.7983 23.6366 36.857 23.611 36.9142ZM23.6979 35.727C23.669 35.6678 23.6387 35.6094 23.6068 35.5519C23.6387 35.6094 23.669 35.6678 23.6979 35.727ZM23.7107 35.7909C23.6822 35.7318 23.6517 35.6735 23.6195 35.6159C23.6517 35.6735 23.6822 35.7318 23.7107 35.7909ZM23.1155 34.8695C23.1164 34.8971 23.1173 34.9247 23.1183 34.9524C23.2069 34.9902 23.3206 35.0051 23.38 35.0698C23.4415 35.1368 23.4921 35.249 23.5311 35.3874C23.5445 35.4352 23.5566 35.4861 23.5672 35.5393C23.5566 35.4861 23.5445 35.4352 23.5311 35.3874C23.4921 35.249 23.4415 35.1368 23.38 35.0698C23.3206 35.0051 23.2069 34.9902 23.1183 34.9524C23.1173 34.9247 23.1164 34.8971 23.1155 34.8695ZM23.7138 35.8962C23.6923 35.8373 23.6688 35.7789 23.6438 35.7211C23.6688 35.7789 23.6923 35.8373 23.7138 35.8962ZM23.7399 36.0843C23.7314 36.0472 23.7177 36.0101 23.6988 35.9731C23.6867 35.9491 23.6724 35.9252 23.6559 35.9013C23.6724 35.9252 23.6867 35.9491 23.6988 35.9731C23.7177 36.0101 23.7314 36.0472 23.7399 36.0843ZM34.3459 37.0005C34.129 36.4968 34.4621 35.8957 34.2668 35.389L34.1308 34.8249C34.1312 34.4605 33.9897 34.1136 33.9902 33.7492C33.6457 32.1501 33.4304 30.5258 33.0265 28.9375C32.4887 26.8226 31.8969 24.7338 30.5834 22.9376C29.4291 21.3592 27.8174 20.9498 26.3723 21.9112C25.9297 22.2057 25.568 22.622 25.1693 22.9826C25.0491 23.3032 24.9288 23.6237 24.8086 23.9443C24.6594 26.1521 24.8225 28.3864 24.214 30.5556C24.0566 31.1167 23.8808 31.6692 23.6278 32.189C23.4756 32.5017 23.3691 32.8123 23.3359 33.1533C23.3927 33.6529 22.9824 34.0773 23.1056 34.5876V34.5877C22.9348 34.7746 22.9799 35.0124 23.0035 35.218C23.0719 35.8131 23.1425 36.406 23.1123 37.0063C22.9558 37.0927 23.1907 37.2903 23.0093 37.3695C23.0105 37.4479 23.0116 37.5264 23.0127 37.6049C23.1447 37.9184 23.3496 38.2065 23.3465 38.5669C23.5785 39.3849 24.1686 40.0232 24.468 40.8084C24.597 41.1467 24.738 41.4776 24.6701 41.8518C24.7107 41.8506 24.7515 41.8493 24.7924 41.848C26.0193 41.8584 27.2389 41.7943 28.4346 41.4882C28.0702 41.3581 27.6904 41.3811 27.3127 41.3557C26.9141 41.3288 26.4563 41.3692 26.2617 40.8725C25.6541 40.3193 24.9411 39.8449 24.816 38.9318C24.7869 38.243 24.683 37.5506 24.9122 36.8738C24.9135 36.7636 24.9149 36.6534 24.9163 36.5432C24.8765 36.5357 24.8366 36.5282 24.7968 36.5207C24.7992 36.3484 24.8327 36.1854 24.9389 36.0442C24.9406 35.9224 24.9421 35.8006 24.9437 35.6788C24.9379 35.5602 24.9321 35.4417 24.9262 35.3231C24.7546 35.3796 24.6718 35.4802 24.6299 35.6C24.6718 35.4802 24.7546 35.3796 24.9263 35.323C25.0662 35.2237 25.0518 35.0795 25.0391 34.9357C25.0395 34.8694 25.0398 34.803 25.04 34.737C25.0022 34.7328 24.9648 34.7261 24.9278 34.7172C25.007 34.4944 24.9575 34.1986 25.2717 34.1088C25.8152 32.4671 26.4033 30.8468 27.1608 29.2844C27.4678 28.6511 27.5401 27.9032 27.7136 27.2061C27.7522 27.0511 27.7651 26.823 27.9249 26.8157C28.1439 26.8056 28.1393 27.0488 28.1842 27.218C28.434 28.1602 28.7419 29.0772 29.0965 29.9909C29.6379 31.3861 30.3284 32.7372 30.6023 34.2299C30.7797 34.354 30.6975 34.5577 30.7521 34.7195C30.7419 34.757 30.735 34.7952 30.7315 34.8339C30.8088 34.9958 30.8861 35.1577 30.9634 35.3197C30.9677 35.4569 30.943 35.6033 31.0829 35.6976C31.083 35.6976 31.083 35.6976 31.083 35.6976C31.0881 36.1379 31.0931 36.5784 31.0982 37.0189C31.0955 37.4816 31.0917 37.9442 31.0905 38.4069C31.0874 39.6154 30.3323 40.6278 29.1572 40.997C29.0015 41.191 28.7253 41.0838 28.5539 41.2386C28.5141 41.3215 28.4744 41.4044 28.4346 41.4874C29.787 41.4308 31.0656 41.0338 32.3362 40.6174C33.0915 40.3698 33.8287 40.067 34.5741 39.789C34.498 38.8595 34.422 37.9301 34.3459 37.0005Z" fill="#FF0000"/>
<path fill-rule="evenodd" clip-rule="evenodd" d="M28.547 37.6185C29.1776 38.2432 29.0778 38.9641 28.313 39.3091C28.2728 39.3447 28.2325 39.3804 28.1923 39.416C28.0699 39.4174 27.9476 39.4189 27.8252 39.4204C27.7434 39.0936 27.4478 39.141 27.218 39.0731C27.218 39.0731 27.2173 39.0707 27.2174 39.0707C27.14 37.7051 27.4311 37.6149 28.4364 37.6107C28.4364 37.6107 28.4355 37.6089 28.4355 37.609C28.4668 37.6807 28.5032 37.6935 28.547 37.6185Z" fill="#F7C107"/>
<path fill-rule="evenodd" clip-rule="evenodd" d="M28.1823 30.7171C28.3759 31.1883 28.5998 31.6568 28.3111 32.1708C28.1001 32.1274 27.7372 32.305 27.7319 31.9443C27.7254 31.5023 27.5958 30.9619 28.1823 30.7171Z" fill="#F89109"/>
<path fill-rule="evenodd" clip-rule="evenodd" d="M28.1816 30.7174C27.5952 30.9622 27.7248 31.5026 27.7313 31.9446C27.7366 32.3053 28.0995 32.1277 28.3105 32.1711C27.6455 32.4235 27.4402 32.303 27.4701 31.6472C27.4939 31.1244 27.6752 30.646 27.9585 30.151C28.1158 30.3444 28.1567 30.5275 28.1816 30.7174Z" fill="#FC8C2C"/>
<path fill-rule="evenodd" clip-rule="evenodd" d="M28.4376 37.6105C27.4322 37.6147 27.1412 37.7049 27.2185 39.0704C26.8269 38.6242 26.8014 38.1691 27.1449 37.759C27.5155 37.3165 27.9028 37.272 28.4376 37.6105Z" fill="#FC8C2C"/>
<path fill-rule="evenodd" clip-rule="evenodd" d="M27.2178 39.0724C27.4471 39.1402 27.7422 39.0929 27.8239 39.4191C27.593 39.3541 27.297 39.4031 27.2178 39.0724Z" fill="#FC8C2C"/>
<path fill-rule="evenodd" clip-rule="evenodd" d="M28.4827 35.0751C28.4616 35.244 28.5538 35.4331 28.3102 35.5622C28.3341 35.3938 28.2288 35.2023 28.4827 35.0751Z" fill="#FA5E53"/>
<path fill-rule="evenodd" clip-rule="evenodd" d="M28.6763 34.9544C28.6235 35.0943 28.5337 35.129 28.4316 35.1295C28.4824 34.984 28.575 34.9569 28.6763 34.9544Z" fill="#FA5E53"/>
<path fill-rule="evenodd" clip-rule="evenodd" d="M28.6101 37.6377C28.5414 37.8547 28.4843 37.8178 28.4351 37.6101C28.4941 37.6056 28.5524 37.6149 28.6101 37.6377Z" fill="#FC8C2C"/>
<path fill-rule="evenodd" clip-rule="evenodd" d="M28.1929 39.485C28.2512 39.4266 28.3096 39.3683 28.3679 39.3099C28.3096 39.3683 28.2512 39.4266 28.1929 39.485Z" fill="#FC8C2C"/>
<path fill-rule="evenodd" clip-rule="evenodd" d="M29.646 34.8634C29.7042 34.8145 29.7623 34.7657 29.8205 34.7169C29.8206 34.7753 29.8208 34.8336 29.8211 34.892C29.7621 34.8853 29.7037 34.8757 29.646 34.8634Z" fill="#F89109"/>
<path fill-rule="evenodd" clip-rule="evenodd" d="M28.3124 39.3092C28.2721 39.3449 28.2319 39.3805 28.1916 39.4162C28.0693 39.4176 27.9469 39.419 27.8246 39.4204C27.5932 39.3554 27.2967 39.4045 27.2173 39.0733L27.2167 39.0709C26.8251 38.6246 26.7996 38.1695 27.1431 37.7594C27.5137 37.317 27.901 37.2725 28.4358 37.6109L28.4348 37.6091C28.4724 37.6076 28.5096 37.6108 28.5464 37.6187C29.177 38.2433 29.0772 38.9643 28.3124 39.3092ZM27.5059 36.7532C27.5031 36.8111 27.5119 36.8695 27.532 36.9283C27.5119 36.8695 27.5031 36.8111 27.5059 36.7532ZM27.4681 31.6469C27.4919 31.1241 27.6733 30.6457 27.9566 30.1507C28.1138 30.3441 28.1548 30.5272 28.1797 30.7172C28.3733 31.1884 28.5973 31.6568 28.3086 32.1709C27.6435 32.4233 27.4383 32.3027 27.4681 31.6469ZM29.2888 34.6667C29.2308 34.6961 29.1723 34.7236 29.1137 34.7507C29.1723 34.7236 29.2308 34.6961 29.2888 34.6667ZM28.7972 36.1666C28.7463 35.8139 28.8159 35.5124 29.1544 35.3252C29.1965 35.3198 29.2387 35.3144 29.2808 35.3091C29.3987 35.3075 29.5165 35.3061 29.6344 35.3046C29.6722 35.266 29.71 35.2273 29.7478 35.1886C29.7474 35.1482 29.7501 35.108 29.7558 35.068C29.7563 34.9938 29.7568 34.9197 29.7573 34.8455C29.7195 34.8404 29.6822 34.8334 29.6452 34.8243C29.6039 34.7827 29.5625 34.7411 29.5212 34.6993C29.4466 34.6617 29.3719 34.6241 29.297 34.5866C29.1504 34.3635 28.9394 34.2157 28.7255 34.0615C28.1886 33.6742 28.1926 33.4204 28.7283 32.9939C29.0758 32.7172 29.3585 32.4004 29.2652 31.9235C29.0824 30.9885 28.6264 30.1537 28.2366 29.2978C28.1072 29.0138 27.9038 28.9722 27.736 29.3156C27.471 29.8576 27.2348 30.4092 27.0214 30.9745C26.6174 32.0446 26.6445 32.2403 27.4715 33.025C27.8969 33.5485 27.757 33.8576 26.981 34.1082C26.981 34.1082 26.9804 34.1088 26.9804 34.1088C26.8782 34.4922 26.337 34.6027 26.3802 35.0764C26.4789 35.1435 26.5698 35.2284 26.6774 35.2749C27.4785 35.6211 27.4856 35.7001 26.8547 36.3135C26.099 37.0483 25.805 37.8976 26.056 38.9781C26.2182 39.6767 26.6692 40.164 26.9925 40.7452C27.7083 41.1778 28.4263 41.24 29.1473 40.7572C29.6253 40.1834 30.0111 39.5594 30.1166 38.8049C30.2811 37.6282 29.6786 36.825 28.7972 36.1666Z" fill="#FF0000"/>
<path fill-rule="evenodd" clip-rule="evenodd" d="M28.5203 35.1422C28.5154 35.1459 28.511 35.1494 28.5061 35.1531C28.5039 35.1573 28.5016 35.1608 28.4995 35.1651L28.5203 35.1422Z" fill="#EE472B"/>
<path fill-rule="evenodd" clip-rule="evenodd" d="M28.4995 35.1651C28.506 35.1651 28.5123 35.1647 28.5186 35.1647C28.5193 35.1574 28.5196 35.1498 28.5203 35.1423C28.5203 35.1423 28.4995 35.1652 28.4995 35.1651Z" fill="#EE472B"/>
</g>
</g>
<defs>
<clipPath id="clip0_4_2088">
<rect width="56" height="56" fill="white"/>
</clipPath>
</defs>
</svg>
