<svg width="226" height="48" viewBox="0 0 226 48" fill="none" xmlns="http://www.w3.org/2000/svg">
<path fill-rule="evenodd" clip-rule="evenodd" d="M37.7668 9.80399C35.8266 8.16995 33.8512 7.69336 31.276 7.69336C28.2423 7.69336 24.2208 8.98697 24.2208 12.7317C24.2208 16.4082 27.9953 17.4976 31.1349 17.7359C33.4984 17.8721 34.4508 18.3146 34.4508 19.438C34.4508 20.6295 33.0045 21.4125 31.4171 21.3785C29.5475 21.3444 26.8312 20.3912 25.6671 19.1317L23.6211 21.9912C26.0551 24.4423 28.7008 24.8848 31.3466 24.8848C36.1088 24.8848 38.5429 22.4338 38.5429 19.5742C38.5429 15.2848 34.5567 14.604 31.3818 14.3997C29.23 14.2636 28.2775 13.6848 28.2775 12.6295C28.2775 11.6083 29.3711 11.0295 31.3113 11.0295C32.8987 11.0295 34.2745 11.404 35.4386 12.4593L37.7668 9.80399Z" fill="#F89522"/>
<path fill-rule="evenodd" clip-rule="evenodd" d="M43.1639 4.01677V8.16996H40.0596V11.6083H43.1639V18.587C43.1639 22.604 45.5274 24.6125 49.1608 24.4763C50.4307 24.4423 51.3832 24.238 52.5826 23.7955L51.4185 20.3912C50.8188 20.6976 50.078 20.8678 49.4077 20.8678C48.1025 20.8678 47.2559 20.1189 47.2559 18.587V11.6083H51.9123V8.16996H47.2912V3.57422L43.1639 4.01677Z" fill="#F89522"/>
<path fill-rule="evenodd" clip-rule="evenodd" d="M62.5661 11.3365C69.0569 11.3365 69.0569 21.1067 62.5661 21.1067C59.8145 21.1067 57.6274 19.2684 57.6274 16.2046C57.5921 13.1067 59.8145 11.3365 62.5661 11.3365ZM67.5047 10.3833C66.5523 8.78329 64.4357 7.76201 62.178 7.76201C57.3099 7.72797 53.4648 10.6556 53.4648 16.2046C53.4648 21.8556 57.1336 24.8173 62.0722 24.7833C63.9418 24.7492 66.5523 23.8301 67.5047 21.9237L67.7164 24.2727H71.632V8.13648H67.6811L67.5047 10.3833Z" fill="#F89522"/>
<path fill-rule="evenodd" clip-rule="evenodd" d="M74.2422 8.13507V24.2712H78.3695V15.7606C78.3695 12.7989 80.3802 11.6755 82.5321 11.6755C83.8726 11.6755 84.6839 12.05 85.5305 12.7308L87.4002 9.25848C86.483 8.37337 84.825 7.72656 83.0965 7.72656C81.4032 7.72656 79.6747 8.03294 78.3695 10.0074L78.052 8.13507H74.2422Z" fill="#F89522"/>
<path fill-rule="evenodd" clip-rule="evenodd" d="M92.4798 4.01677V8.16996H89.3755V11.6083H92.4798V18.587C92.4798 22.604 94.8433 24.6125 98.4767 24.4763C99.7466 24.4423 100.699 24.238 101.898 23.7955L100.734 20.3912C100.135 20.6976 99.3939 20.8678 98.7236 20.8678C97.4184 20.8678 96.5718 20.1189 96.5718 18.587V11.6083H101.228V8.16996H96.6071V3.57422L92.4798 4.01677Z" fill="#F89522"/>
<path fill-rule="evenodd" clip-rule="evenodd" d="M104.297 8.13672V16.6133C104.297 21.6176 107.225 24.5452 111.211 24.5452C113.54 24.5452 115.127 23.7623 116.891 22.1282L117.173 24.2729H120.877V8.13672H116.785V16.375C116.785 18.8601 115.057 20.9027 112.517 20.9027C109.871 20.9027 108.495 19.0303 108.495 16.5793V8.13672H104.297Z" fill="#F89522"/>
<path fill-rule="evenodd" clip-rule="evenodd" d="M127.403 31.0128V22.366C128.603 24.1362 131.213 24.6468 132.977 24.6468C138.339 24.6468 141.408 20.9021 141.408 16.2043C141.408 11.4724 137.986 7.76172 132.836 7.76172C130.931 7.76172 128.709 8.5447 127.403 10.349L127.121 8.13619H123.241V31.0128H127.403ZM132.518 20.8C129.696 20.8 127.756 18.7575 127.756 16.2043C127.756 13.6851 129.52 11.6085 132.518 11.6085C135.517 11.6085 137.281 13.6851 137.281 16.2043C137.245 18.7575 135.305 20.8 132.518 20.8Z" fill="#F89522"/>
<path fill-rule="evenodd" clip-rule="evenodd" d="M143.278 3.60856C143.278 6.70643 148.146 6.70643 148.146 3.60856C148.181 0.510688 143.278 0.510688 143.278 3.60856ZM147.793 24.2724H143.666V8.06814H147.793V24.2724Z" fill="#F89522"/>
<path fill-rule="evenodd" clip-rule="evenodd" d="M166.877 24.2718V15.7952C166.877 10.7229 163.738 7.86328 159.787 7.86328C157.67 7.86328 155.977 8.6803 154.284 10.2803L154.001 8.10157H150.297V24.2718H154.389V16.0335C154.389 13.5824 156.118 11.5058 158.658 11.5058C161.304 11.5058 162.679 13.3782 162.679 15.8292V24.2718H166.877Z" fill="#F89522"/>
<path fill-rule="evenodd" clip-rule="evenodd" d="M182.998 1.39537V10.3145C182.011 8.64643 179.259 7.72729 177.495 7.72729C172.627 7.72729 168.994 10.6209 168.994 16.1698C168.994 21.4805 172.698 24.6124 177.601 24.6124C179.647 24.6124 181.693 23.9656 182.998 22.0252L183.28 24.2379H187.161V1.36133H182.998V1.39537ZM177.883 11.472C180.494 11.472 182.716 13.3783 182.716 16.1698C182.716 19.0635 180.494 20.9018 177.883 20.9018C175.238 20.9018 173.121 18.9613 173.121 16.1698C173.156 13.2762 175.238 11.472 177.883 11.472Z" fill="#F89522"/>
<path fill-rule="evenodd" clip-rule="evenodd" d="M190.195 3.60856C190.195 6.70643 195.063 6.70643 195.063 3.60856C195.063 0.510688 190.195 0.510688 190.195 3.60856Z" fill="#A4CD39"/>
<path d="M194.71 8.06836H190.583V24.2726H194.71V8.06836Z" fill="#3DC5F2"/>
<path fill-rule="evenodd" clip-rule="evenodd" d="M205.999 11.3365C212.489 11.3365 212.489 21.1067 205.999 21.1067C203.247 21.1067 201.06 19.2684 201.06 16.2046C201.06 13.1067 203.282 11.3365 205.999 11.3365ZM210.973 10.3833C210.02 8.78329 207.903 7.76201 205.646 7.76201C200.778 7.72797 196.933 10.6556 196.933 16.2046C196.933 21.8556 200.601 24.8173 205.54 24.7833C207.41 24.7492 210.02 23.8301 210.973 21.9237L211.184 24.2727H215.065V8.13648H211.114L210.973 10.3833Z" fill="#F89522"/>
<path d="M194.745 26.7578H174.991V30.6727H194.745V26.7578Z" fill="#A4CD39"/>
<path d="M178.942 26.791H174.92V45.8889H178.942V26.791Z" fill="#A4CD39"/>
<path d="M178.942 41.9746H159.258V45.8895H178.942V41.9746Z" fill="#A4CD39"/>
<path d="M13.2502 5.44727L12.1919 9.49833H15.261L16.3192 5.44727H20.0585L19.0355 9.53237H21.0462V12.6643H18.2242L16.9189 17.6005H19.1413V20.7664H16.1781L15.261 24.443H11.4511L12.3683 20.7664H9.26403L8.34685 24.443H4.60759L5.52477 20.7664H3.4082V17.6005H6.37139L7.67661 12.6302H5.34839V9.53237H8.45268L9.47569 5.48131H13.2502V5.44727ZM11.2395 12.426L9.82845 17.8047H13.3561L14.7671 12.426H11.2395Z" fill="#F89522"/>
</svg>
