<svg width="150" height="40" viewBox="0 0 150 40" fill="none" xmlns="http://www.w3.org/2000/svg">
<g clip-path="url(#clip0_763_3290)">
<path d="M18.2461 31.6436L11.0766 31.5125C8.75514 31.4668 6.42803 31.5581 4.15224 31.0847C0.690084 30.3774 0.444824 26.9096 0.188156 24.0007C-0.165474 19.9111 -0.0285848 15.7474 0.63875 11.692C1.0152 9.41624 2.49816 8.05876 4.79106 7.91046C12.531 7.37431 20.3223 7.43705 28.0451 7.68802C28.8608 7.71083 29.6821 7.83631 30.4863 7.97891C34.4561 8.67476 34.5531 12.6046 34.8097 15.9128C35.0664 19.2552 34.958 22.6147 34.4675 25.9342C34.074 28.6834 33.3211 30.9877 30.1441 31.2102C26.1629 31.5011 22.273 31.7349 18.2804 31.6608C18.2804 31.6436 18.2575 31.6436 18.2461 31.6436V31.6436ZM14.0311 24.6851C17.0312 22.9626 19.9744 21.2686 22.9574 19.5575C19.9515 17.8349 17.0141 16.1409 14.0311 14.4298V24.6851Z" fill="#FF0000"/>
<path d="M95.8362 28.518C95.6993 29.077 95.5795 29.5162 95.4597 29.9839H92.6535V8.33826H95.9275V16.3235C96.0986 16.1067 96.1841 16.0155 96.2583 15.9185C96.8172 15.1485 97.5416 14.6466 98.477 14.4526C99.9657 14.1618 101.238 14.8177 101.688 16.2493C101.979 17.1391 102.167 18.0916 102.19 19.0213C102.236 21.4112 102.202 23.7953 102.116 26.1852C102.082 26.9153 101.859 27.6625 101.58 28.3469C100.662 30.6056 97.6614 30.9478 96.1727 28.9914C96.0815 28.8716 95.9959 28.7405 95.8362 28.518ZM95.9959 26.5217C95.9959 27.1662 96.3381 27.5598 96.9826 27.7081C97.6158 27.8564 98.1291 27.6111 98.3858 27.0236C98.4941 26.7784 98.6025 26.5217 98.6082 26.2651C98.6709 23.8467 98.728 21.4283 98.7451 19.0042C98.7451 18.5536 98.6367 18.0859 98.4998 17.6467C98.2432 16.8539 97.5359 16.6201 96.84 17.0821C96.3153 17.4357 95.9959 17.9376 95.9959 18.605V26.5217ZM87.0981 14.7606H90.526V29.9953H87.851C87.754 29.4192 87.6571 28.826 87.543 28.1302C87.3605 28.3982 87.2521 28.5694 87.138 28.7405C86.2482 30.0238 84.9877 30.463 83.499 30.2291C82.2271 30.0238 81.4628 29.0428 81.2917 27.4343C81.2404 26.9552 81.2176 26.4704 81.2176 25.9913C81.2061 22.4264 81.2176 18.8502 81.2176 15.2854V14.7492H84.6854V15.3709C84.6854 18.816 84.674 22.2553 84.6968 25.7004C84.6968 26.1909 84.7482 26.6985 84.8337 27.1891C84.9307 27.691 85.2957 27.8735 85.7862 27.8393C86.5791 27.7765 87.1266 27.1891 87.1266 26.4019V15.4337C87.0981 15.2112 87.0981 15.0059 87.0981 14.7606ZM63.4961 14.7492H66.9411V15.3938C66.9411 18.8217 66.9297 22.2439 66.9525 25.6605C66.9525 26.151 66.9982 26.6586 67.1008 27.1377C67.232 27.7024 67.5628 27.8849 68.1275 27.8108C68.9089 27.7024 69.3823 27.1605 69.388 26.3677V14.7721H72.816V29.9953H70.1523C70.0554 29.4306 69.9584 28.8488 69.8329 28.1131C69.6618 28.3697 69.5648 28.518 69.4679 28.672C68.5781 29.9782 67.329 30.4573 65.8061 30.2234C64.5855 30.0409 63.8383 29.1397 63.6102 27.6625C63.5474 27.2005 63.5018 26.7442 63.5018 26.2822C63.4904 22.5804 63.4904 18.8616 63.4904 15.1599L63.4961 14.7492ZM61.7279 22.8827C61.7165 23.3961 61.6823 23.9094 61.6538 24.4227C61.5226 25.9628 61.4599 28.1473 60.2164 29.2709C59.4236 29.9782 58.4198 30.2348 57.3817 30.2691C56.9197 30.2805 56.452 30.2805 55.99 30.2177C53.8055 29.8869 52.7902 28.923 52.4252 26.5217C52.0088 23.7497 51.9746 20.9321 52.4708 18.1601C52.9841 15.2911 54.7523 14.2758 57.5015 14.4641C60.0681 14.6466 61.2146 16.3292 61.5169 18.7247C61.6823 20.0993 61.7622 21.491 61.7279 22.8827ZM58.2373 22.358C58.2373 21.3827 58.2601 20.4016 58.2258 19.4263C58.203 18.8616 58.1289 18.2912 58.0091 17.7323C57.8722 17.0878 57.4615 16.7798 56.9482 16.7912C56.4463 16.8026 56.0927 17.1106 55.9101 17.7095C55.8474 17.9319 55.7789 18.1601 55.7789 18.3825C55.7789 19.9111 55.7675 21.4454 55.7561 22.974C55.7447 24.3999 55.5622 25.8943 56.0128 27.2575C56.1497 27.6739 56.5033 27.902 56.9653 27.902C57.4159 27.902 57.7125 27.6796 57.8779 27.2803C58.0091 26.9723 58.1232 26.6358 58.1232 26.305C58.1631 24.9931 58.2373 23.6756 58.2373 22.358ZM47.3945 19.489C47.6968 18.0118 47.982 16.5687 48.2957 15.12C48.6892 13.2777 49.1284 11.4354 49.5163 9.58737C49.6132 9.13678 49.7957 9.02841 50.2235 9.03981C51.1418 9.07404 52.0772 9.05122 53.0583 9.05122C52.7389 10.2262 52.4252 11.3441 52.1172 12.4449C51.1418 15.9014 50.1665 19.3693 49.2026 22.8371C49.1284 23.1052 49.0942 23.3961 49.0942 23.6813C49.0828 25.5749 49.0942 27.4628 49.0942 29.3565V29.9725H45.7461C45.7347 29.8014 45.7119 29.6302 45.7119 29.4591C45.7119 28.3868 45.6263 27.3088 45.7233 26.2479C45.9685 23.6984 45.1586 21.3541 44.5027 18.9814C43.6357 15.8444 42.7574 12.6959 41.8904 9.55885C41.8448 9.41056 41.8276 9.25085 41.782 9.06833H45.1985C45.9172 12.5305 46.6416 15.9927 47.3945 19.489ZM112.902 23.4645H107.13C107.192 24.6224 107.215 25.7232 107.335 26.8126C107.42 27.5712 107.837 27.8963 108.493 27.902C109.177 27.9134 109.576 27.5712 109.736 26.8183C109.788 26.5731 109.822 26.3278 109.845 26.0768C109.867 25.8544 109.879 25.6148 109.896 25.2954C110.871 25.3468 111.824 25.4038 112.765 25.4437C113.312 27.0693 112.326 29.1568 110.666 29.8014C109.36 30.3147 108.019 30.3147 106.685 29.9211C105.698 29.6302 104.962 29.0028 104.631 28.0389C104.323 27.1377 104.032 26.1966 103.97 25.2555C103.799 22.9341 103.736 20.5898 104.089 18.2627C104.152 17.8749 104.261 17.5041 104.38 17.1277C104.859 15.5763 105.903 14.6238 107.517 14.4641C108.396 14.3785 109.303 14.4127 110.17 14.561C111.573 14.8063 112.32 15.8158 112.645 17.1391C112.793 17.7608 112.902 18.3996 112.925 19.0327C112.93 20.4872 112.902 21.9302 112.902 23.4645ZM109.622 21.4625C109.622 20.3161 109.633 19.2381 109.611 18.1544C109.611 17.8977 109.514 17.6296 109.417 17.3844C109.223 16.9052 108.818 16.7741 108.333 16.7741C107.848 16.7741 107.54 17.0193 107.42 17.4585C107.055 18.7761 107.175 20.1221 107.187 21.4739C108.059 21.4625 108.852 21.4625 109.622 21.4625Z" fill="#282828"/>
<path d="M75.4624 11.846H72.0687V9.09682H82.1985V11.8289H78.8276V29.9724H75.4681L75.4624 11.846Z" fill="#282828"/>
</g>
<defs>
<clipPath id="clip0_763_3290">
<rect width="115" height="40" fill="white"/>
</clipPath>
</defs>
</svg>
